<svg width="72" height="72" viewBox="0 0 72 72" fill="none" xmlns="http://www.w3.org/2000/svg">
<g clip-path="url(#clip0)">
<path fill-rule="evenodd" clip-rule="evenodd" d="M36 -3.05176e-05C15.8581 -3.05176e-05 0.247986 14.7391 0.247986 34.6455C0.247986 45.0583 4.52089 54.0557 11.4772 60.2719C12.0599 60.7965 12.4123 61.5223 12.441 62.3056L12.6354 68.6582C12.7001 70.6848 14.7934 72 16.6494 71.1879L23.7423 68.0619C24.3423 67.7964 25.0155 67.7456 25.6486 67.9182C28.9072 68.8164 32.3818 69.2907 36 69.2907C56.142 69.2907 71.7521 54.5515 71.7521 34.6453C71.7521 14.7391 56.142 -3.05176e-05 36 -3.05176e-05Z" fill="url(#paint0_linear)"/>
<path fill-rule="evenodd" clip-rule="evenodd" d="M14.5345 44.7781L25.037 28.1346C26.7059 25.49 30.2882 24.8288 32.7916 26.7045L41.1433 32.9638C41.5164 33.2427 41.97 33.3927 42.4357 33.3915C42.9015 33.3902 43.3543 33.2376 43.7258 32.9567L55.0054 24.4048C56.5088 23.2623 58.48 25.0662 57.4655 26.6615L46.9702 43.2978C45.3012 45.9424 41.7189 46.6036 39.2155 44.7279L30.8638 38.4686C30.4908 38.1897 30.0372 38.0397 29.5714 38.041C29.1056 38.0423 28.6528 38.1948 28.2813 38.4757L16.9946 47.0348C15.4912 48.1774 13.52 46.3735 14.5345 44.7781Z" fill="white"/>
</g>
<defs>
<linearGradient id="paint0_linear" x1="36" y1="-3.05176e-05" x2="36" y2="71.432" gradientUnits="userSpaceOnUse">
<stop stop-color="#00B2FF"/>
<stop offset="1" stop-color="#006AFF"/>
</linearGradient>
<clipPath id="clip0">
<rect width="72" height="72" fill="white"/>
</clipPath>
</defs>
</svg>
