<svg width="85" height="85" viewBox="0 0 85 85" fill="none" xmlns="http://www.w3.org/2000/svg">
<path d="M5.79561 75.6549H19.3182V42.814L0 28.3253V69.8596C0 73.0615 2.5935 75.6552 5.79561 75.6552V75.6549Z" fill="#4285F4"/>
<path d="M65.6818 75.6548H79.2046C82.4065 75.6548 85 73.0614 85 69.8594V28.3253L65.6818 42.814V75.6548Z" fill="#34A853"/>
<path d="M65.6818 17.7002V42.8139L85 28.3252V20.598C85 13.4357 76.8237 9.34511 71.0909 13.6434L65.6818 17.7002Z" fill="#FBBC04"/>
<path fill-rule="evenodd" clip-rule="evenodd" d="M19.3182 42.8138V17.7002L42.5 35.0866L65.6818 17.7002V42.8138L42.5 60.2002L19.3182 42.8138Z" fill="#EA4335"/>
<path d="M0 20.598V28.3252L19.3182 42.8138V17.7002L13.9091 13.6434C8.17627 9.34509 0 13.4357 0 20.5976V20.598Z" fill="#C5221F"/>
</svg>
