<svg width="80" height="80" viewBox="0 0 80 80" fill="none" xmlns="http://www.w3.org/2000/svg">
<path d="M41.4166 61.9746L28.3033 61.7352C24.0575 61.6517 19.8011 61.8183 15.6386 60.9539C9.30636 59.6623 8.85777 53.3297 8.38836 48.0178C7.74156 40.55 7.99196 32.9466 9.21255 25.5412C9.90161 21.3859 12.6133 18.9064 16.807 18.6366C30.9635 17.6574 45.2141 17.7735 59.3393 18.2303C60.8311 18.2722 62.3331 18.5011 63.8041 18.7616C71.0652 20.0324 71.2422 27.2086 71.7129 33.2497C72.1823 39.3531 71.9841 45.4879 71.087 51.5497C70.3672 56.5687 68.99 60.7777 63.1781 61.184C55.8962 61.7153 48.7814 62.1431 41.479 62.0069C41.4794 61.9746 41.4374 61.9746 41.4166 61.9746ZM33.7072 49.2678C39.1948 46.1221 44.5776 43.0288 50.0337 39.9043C44.536 36.7586 39.1634 33.6653 33.7072 30.5407V49.2678Z" fill="#FF0000"/>
</svg>
