<svg width="90" height="83" viewBox="0 0 90 83" fill="none" xmlns="http://www.w3.org/2000/svg">
<g clip-path="url(#clip0)">
<path d="M26.478 -3.05176e-05L0.0065918 17.1393L18.31 31.6742L45.0014 15.3302L26.478 -3.05176e-05ZM0.0065918 46.2101L26.478 63.3495L45.0014 48.0173L18.31 31.6744L0.0065918 46.2101ZM45.0014 48.0173L63.5247 63.3495L89.9961 46.2101L71.6927 31.6742L45.0014 48.0173Z" fill="#007EE5"/>
<path d="M89.9948 17.1393L63.5233 -3.05176e-05L45 15.3303L71.6913 31.6744L89.9948 17.1393ZM45.0543 51.3162L26.4766 66.6031L18.5269 61.4559V67.2257L45.0543 82.9999L71.5818 67.2257V61.4558L63.632 66.6031L45.0543 51.3162Z" fill="#007EE5"/>
</g>
<defs>
<clipPath id="clip0">
<rect width="90" height="83" fill="white"/>
</clipPath>
</defs>
</svg>
