<svg width="64" height="64" viewBox="0 0 64 64" fill="none" xmlns="http://www.w3.org/2000/svg">
<path d="M40.0648 4H18.9014C18.2 4 17.5274 4.28088 17.0314 4.78085C16.5354 5.28083 16.2568 5.95893 16.2568 6.666V18L40.0648 32L51.9688 37.064L63.8728 32V18L40.0648 4Z" fill="#21A366"/>
<path d="M16.2568 18H40.0648V32H16.2568V18Z" fill="#107C41"/>
<path d="M61.2281 4H40.0648V18H63.8728V6.666C63.8728 5.95893 63.5941 5.28083 63.0982 4.78085C62.6022 4.28088 61.9295 4 61.2281 4Z" fill="#33C481"/>
<path d="M40.0648 32H16.2568V57.334C16.2568 58.0411 16.5354 58.7192 17.0314 59.2191C17.5274 59.7191 18.2 60 18.9014 60H61.2281C61.9295 60 62.6022 59.7191 63.0982 59.2191C63.5942 58.7192 63.8728 58.0411 63.8728 57.334V46L40.0648 32Z" fill="#185C37"/>
<path d="M40.0648 32H63.8728V46H40.0648V32Z" fill="#107C41"/>
<path opacity="0.1" d="M33.4521 14H16.2568V52H33.4521C34.1529 51.9979 34.8243 51.7163 35.3199 51.2168C35.8154 50.7173 36.0947 50.0404 36.0968 49.334V16.666C36.0947 15.9596 35.8154 15.2827 35.3199 14.7832C34.8243 14.2837 34.1529 14.0021 33.4521 14Z" fill="black"/>
<path opacity="0.2" d="M31.4681 16H16.2568V54H31.4681C32.1689 53.9979 32.8404 53.7163 33.3359 53.2168C33.8314 52.7173 34.1107 52.0404 34.1128 51.334V18.666C34.1107 17.9596 33.8314 17.2827 33.3359 16.7832C32.8404 16.2837 32.1689 16.0021 31.4681 16Z" fill="black"/>
<path opacity="0.2" d="M31.4681 16H16.2568V50H31.4681C32.1689 49.9979 32.8404 49.7163 33.3359 49.2168C33.8314 48.7173 34.1107 48.0404 34.1128 47.334V18.666C34.1107 17.9596 33.8314 17.2827 33.3359 16.7832C32.8404 16.2837 32.1689 16.0021 31.4681 16Z" fill="black"/>
<path opacity="0.2" d="M29.4841 16H16.2568V50H29.4841C30.1849 49.9979 30.8564 49.7163 31.3519 49.2168C31.8474 48.7173 32.1267 48.0404 32.1288 47.334V18.666C32.1267 17.9596 31.8474 17.2827 31.3519 16.7832C30.8564 16.2837 30.1849 16.0021 29.4841 16Z" fill="black"/>
<path d="M3.02944 16H29.4841C30.1855 16 30.8582 16.2809 31.3542 16.7809C31.8501 17.2808 32.1288 17.9589 32.1288 18.666V45.334C32.1288 46.0411 31.8501 46.7192 31.3542 47.2191C30.8582 47.7191 30.1855 48 29.4841 48H3.02944C2.32803 48 1.65534 47.7191 1.15937 47.2191C0.6634 46.7192 0.384766 46.0411 0.384766 45.334L0.384766 18.666C0.384766 17.9589 0.6634 17.2808 1.15937 16.7809C1.65534 16.2809 2.32803 16 3.02944 16Z" fill="#107C41"/>
<path d="M7.39423 42L13.8144 31.972L7.93387 22H12.6657L15.8758 28.374C16.1708 28.978 16.3738 29.4287 16.4849 29.726H16.5266C16.7382 29.2433 16.9598 28.774 17.1912 28.318L20.6216 22H24.9645L18.9332 31.916L25.1173 42H20.4946L16.7865 35C16.6118 34.7018 16.4637 34.3886 16.344 34.064H16.2885C16.1803 34.3814 16.0365 34.6854 15.86 34.97L12.0447 42H7.39423Z" fill="white"/>
</svg>
