<svg width="71" height="84" viewBox="0 0 71 84" fill="none" xmlns="http://www.w3.org/2000/svg">
<g clip-path="url(#clip0)">
<path d="M68.147 75.9785C67.8936 76.2437 67.5768 76.3763 67.1966 76.3763C66.8164 76.3763 66.4996 76.2437 66.2461 75.9785C65.9927 75.7133 65.866 75.3818 65.866 74.984C65.866 74.5863 65.9927 74.2216 66.2778 73.9564C66.5313 73.6912 66.8481 73.5918 67.1966 73.5918C67.5768 73.5918 67.8936 73.7244 68.147 73.9896C68.4005 74.2548 68.5272 74.5863 68.5272 74.984C68.5589 75.3818 68.4322 75.7133 68.147 75.9785ZM66.4362 74.1553C66.2145 74.3874 66.1194 74.6525 66.1194 74.9509C66.1194 75.2824 66.2145 75.5476 66.4362 75.7796C66.658 76.0117 66.9114 76.1111 67.2283 76.1111C67.5451 76.1111 67.7985 76.0117 68.0203 75.7796C68.2421 75.5476 68.3371 75.2824 68.3371 74.9509C68.3371 74.6525 68.2421 74.3542 68.0203 74.1553C67.7985 73.9233 67.5451 73.7907 67.2283 73.7907C66.9114 73.8238 66.658 73.9233 66.4362 74.1553ZM67.6401 75.6802C67.5134 75.7796 67.3867 75.8128 67.2599 75.8128C67.0699 75.8128 66.8798 75.7465 66.7214 75.5807C66.563 75.415 66.4996 75.2161 66.4996 74.984C66.4996 74.752 66.563 74.5531 66.6897 74.3874C66.8164 74.2216 67.0065 74.1553 67.2283 74.1553C67.355 74.1553 67.4817 74.1885 67.6084 74.2548C67.7668 74.3542 67.8936 74.52 67.9252 74.7851H67.5768C67.5451 74.6857 67.5134 74.5863 67.45 74.5531C67.3867 74.52 67.3233 74.4868 67.2599 74.4868C67.1649 74.4868 67.0699 74.52 67.0065 74.6194C66.9431 74.7188 66.9114 74.8514 66.9114 75.0172C66.9114 75.1829 66.9431 75.3155 67.0065 75.3818C67.0699 75.4481 67.1649 75.5144 67.2599 75.5144C67.355 75.5144 67.4184 75.4813 67.4817 75.4481L67.5768 75.2492H67.8936C67.8619 75.4481 67.7668 75.5807 67.6401 75.6802ZM70.9983 60.9619C70.9983 60.8293 70.9667 60.6967 70.9667 60.5641C70.9667 60.4647 70.935 60.3984 70.935 60.3321C70.9033 60.1332 70.8716 59.9675 70.8083 59.7686C70.6815 59.4039 70.4914 59.0393 70.238 58.7409C69.9845 58.4426 69.6994 58.2106 69.4143 58.0448C69.0975 57.8791 68.7806 57.7796 68.5272 57.7133C68.4322 57.7133 68.3688 57.6802 68.3054 57.6802C68.6539 56.089 68.2104 54.8625 67.9252 54.299L67.9886 54.2327C68.3688 53.8349 68.6856 53.4702 68.9707 53.1056L69.0341 53.0393C69.2559 52.7078 69.3826 52.3763 69.4776 52.078C69.541 51.8128 69.6044 51.5807 69.6044 51.3487V51.1498V51.0172V50.7188C69.5727 50.2216 69.5093 49.5918 69.1925 48.8956C69.0341 48.5641 68.8123 48.1995 68.5272 47.868C68.2421 47.5365 67.8936 47.2382 67.4817 47.0061C67.45 46.973 67.4184 46.973 67.3867 46.9398C66.5313 45.647 65.5808 44.6194 64.7254 43.857C64.2819 43.4592 63.87 43.1277 63.5215 42.8625C63.1731 42.5973 62.8879 42.3984 62.7295 42.2658C62.3493 41.9675 62.0642 41.8017 61.9375 41.7354C61.6207 41.5365 61.3989 41.3708 61.2722 41.2713C61.1771 41.1719 61.1138 41.1387 61.0821 41.1056C61.0821 41.1056 61.0821 41.0724 61.0504 41.0061C61.0187 40.9067 61.0187 40.7741 61.0187 40.542C61.0187 40.2106 61.0187 39.7133 61.0504 39.0503C61.1138 37.9896 61.2088 36.5641 61.3355 34.6083C61.3672 33.9785 61.3672 33.3818 61.3672 32.8514C61.3355 31.9564 61.2088 31.1608 61.0504 30.4315C61.0187 30.2658 60.9554 30.1001 60.9237 29.9343C60.892 29.8017 60.8603 29.7354 60.8286 29.6691C60.797 29.5697 60.7653 29.4702 60.7019 29.3376C60.6702 29.2713 60.6702 29.205 60.6069 29.1387C60.5435 28.973 60.4801 28.8072 60.3851 28.6415L60.3534 28.6083L60.3217 28.5089L60.2901 28.4426C60.1317 28.1443 59.9416 27.8791 59.7515 27.647C59.6564 27.1829 59.498 26.5199 59.2129 25.7575C58.9594 25.0945 58.6426 24.3653 58.1674 23.636C58.009 23.3708 57.8189 23.1387 57.6288 22.9067L57.6922 22.8404C57.7872 22.7409 60.0049 20.2879 61.7791 17.1056C65.0423 11.1719 63.9651 7.55862 62.4761 5.56967L62.4444 5.50337L62.4127 5.43707C60.987 3.77961 59.0228 2.78513 56.6467 2.45364C51.6727 1.79066 46.0335 4.3763 44.5444 5.10558L41.8199 1.98955C41.5664 1.72436 41.313 1.45917 41.0278 1.26027C40.7427 1.06138 40.4259 0.862483 40.1091 0.696737C39.4754 0.398394 38.7785 0.199499 38.0181 0.100051C36.5291 -0.0988436 34.8183 0.100051 32.9808 0.597289C30.2245 1.32657 27.1514 2.78513 23.9199 4.80723C20.6884 6.82933 17.3302 9.44812 14.067 12.5641C10.0752 16.3431 6.78033 20.3542 4.37255 24.1995C3.16866 26.089 2.18654 27.9454 1.45787 29.7354C0.729203 31.4923 0.253984 33.1829 0.063896 34.7078C-0.0628292 35.8349 -0.0628292 36.8956 0.15894 37.857C0.253984 38.2879 0.380709 38.6857 0.570797 39.0835C0.792566 39.5807 1.0777 40.0448 1.42619 40.4426L4.24583 43.5255L4.56264 43.857L4.53096 43.8901L4.43592 44.089C4.37255 44.1885 4.34087 44.2879 4.27751 44.3542L4.18247 44.5531C4.15078 44.6525 4.08742 44.752 4.05574 44.8514L3.9607 45.0503C3.92902 45.1498 3.86565 45.2492 3.83397 45.3487C3.80229 45.415 3.77061 45.4813 3.77061 45.5476L3.67557 45.8459C3.64388 45.9122 3.64388 45.9785 3.6122 46.0448C3.58052 46.1443 3.54884 46.2437 3.51716 46.3763C3.51716 46.4094 3.48548 46.4426 3.48548 46.4757C3.48548 46.5089 3.4538 46.542 3.4538 46.5752C3.42211 46.6746 3.39043 46.8072 3.35875 46.9067C3.35875 46.973 3.32707 47.0393 3.32707 47.1056C3.32707 47.1387 3.29539 47.205 3.29539 47.2382C3.29539 47.3045 3.26371 47.3708 3.26371 47.4371C3.26371 47.5034 3.23203 47.5697 3.23203 47.636C3.20035 47.7686 3.20035 47.9012 3.16866 48.0669C3.16866 48.1001 3.16866 48.1332 3.13698 48.1995V48.2327C3.13698 48.3321 3.1053 48.4315 3.1053 48.4978C3.1053 48.6304 3.07362 48.7962 3.07362 48.9288V50.5862C3.07362 50.6525 3.07362 50.7188 3.1053 50.7851C3.1053 50.8514 3.1053 50.9509 3.13698 51.0503V51.1498C3.13698 51.2161 3.16866 51.3155 3.16866 51.3818C3.16866 51.4481 3.20035 51.5144 3.20035 51.6139C3.20035 51.647 3.20035 51.6802 3.23203 51.7133C3.23203 51.7465 3.26371 51.8128 3.26371 51.8459V51.9122C3.26371 51.9785 3.29539 52.0448 3.32707 52.1774C3.32707 52.2106 3.32707 52.2106 3.35875 52.2437C3.39043 52.31 3.39043 52.3763 3.39043 52.4095L3.42211 52.4757C3.42211 52.5089 3.42211 52.5089 3.4538 52.542L3.48548 52.6083V52.7078C3.48548 52.7409 3.48548 52.7409 3.51716 52.7741L3.54884 52.8404C3.54884 52.9067 3.58052 52.9398 3.58052 53.0061C3.6122 53.0724 3.6122 53.1387 3.64388 53.2713V53.2382V53.2713C3.64388 53.3045 3.64388 53.3045 3.67557 53.3376C3.70725 53.4371 3.73893 53.5034 3.73893 53.5365C3.77061 53.6028 3.80229 53.6691 3.83397 53.8017L3.86565 53.8349C3.89733 53.9012 3.89733 53.9675 3.92902 54.0006L3.9607 54.0669C3.9607 54.1001 3.99238 54.1332 3.99238 54.1664C3.99238 54.1995 4.02406 54.2658 4.05574 54.299L4.08742 54.3653C4.1191 54.3984 4.1191 54.4647 4.15078 54.4978C4.18247 54.531 4.18247 54.5641 4.18247 54.5973C4.21415 54.6636 4.24583 54.7299 4.27751 54.8293L4.30919 54.8625C4.34087 54.8956 4.34087 54.9288 4.37255 54.9619C4.40423 54.9951 4.40423 55.0614 4.43592 55.0945C4.4676 55.1277 4.49928 55.194 4.53096 55.2934L4.56264 55.3266C4.59432 55.3597 4.59432 55.3929 4.626 55.426C4.65769 55.4923 4.68937 55.5255 4.68937 55.5586C4.72105 55.5918 4.75273 55.6581 4.78441 55.7244V55.7575C4.81609 55.7907 4.81609 55.8238 4.84777 55.857C4.87945 55.9233 4.91114 55.9564 4.94282 55.9896C4.9745 56.0227 5.00618 56.089 5.06954 56.1885C5.10122 56.2216 5.13291 56.2548 5.13291 56.2879C5.16459 56.3542 5.19627 56.3874 5.22795 56.4205C5.25963 56.4536 5.29131 56.5199 5.32299 56.5862C5.35467 56.6194 5.38636 56.6857 5.41804 56.7188C5.44972 56.7851 5.4814 56.8183 5.54476 56.8514L5.63981 56.9509L5.67149 56.984C5.73485 57.0503 5.76653 57.1166 5.82989 57.1829L5.89326 57.2492L5.9883 57.3487L6.17839 57.5476L6.24175 57.6139L6.33679 57.7133L6.36848 57.7465C6.43184 57.8128 6.52688 57.8791 6.59024 57.9785L6.62193 58.0117C6.65361 58.0448 6.68529 58.0448 6.71697 58.1111C6.81201 58.2106 6.90706 58.2769 7.0021 58.3763L7.06546 58.4095L7.09715 58.4426L7.16051 58.4757C7.25555 58.542 7.31891 58.6083 7.41396 58.6746L7.44564 58.7078C7.47732 58.7409 7.509 58.7409 7.509 58.7409L7.57237 58.8072C7.63573 58.8735 7.69909 58.9067 7.76245 58.973L7.82582 59.0061L7.88918 59.0724L7.92086 59.1056C7.98422 59.1387 8.07927 59.205 8.14263 59.2382C8.17431 59.2713 8.20599 59.3045 8.26935 59.3045L8.33272 59.3376L8.3644 59.3708H8.39608C8.5228 59.4371 8.61785 59.5034 8.71289 59.5697L8.77626 59.6028L9.15643 59.8017H9.18811L9.25147 59.8349L9.44156 59.9343C9.47324 59.9343 9.50492 59.9675 9.53661 59.9675C9.56829 60.0006 9.59997 60.0006 9.66333 60.0338H9.69501C9.75838 60.0669 9.82174 60.1001 9.8851 60.1001H9.91678C9.98014 60.1332 10.0435 60.1664 10.1386 60.1995H10.1702L10.2336 60.2327C10.2653 60.2327 10.297 60.2658 10.3286 60.2658H10.3603C10.4554 60.299 10.5504 60.3321 10.6771 60.3653H10.7088C10.8672 60.4316 11.0256 60.4647 11.184 60.4978H11.2157C11.3424 60.531 11.5008 60.5641 11.6276 60.5973H11.7543C11.881 60.6304 12.0077 60.6636 12.1345 60.6636H12.2612C12.3562 60.6636 12.4196 60.6967 12.5146 60.6967C12.5146 60.7299 12.5463 60.763 12.5463 60.7962C12.7681 61.426 12.9899 62.0559 13.2433 62.6525C16.9817 73.4923 27.3415 81.9122 39.1586 83.4702C50.9758 84.9951 63.6166 76.7741 68.749 65.6691C68.9707 65.2382 69.1608 64.8404 69.3509 64.4095C69.8578 63.8459 70.2697 63.2824 70.5231 62.6857C70.935 62.3211 71.03 61.5918 70.9983 60.9619ZM5.38636 56.6525H5.41804H5.38636Z" fill="#664F44"/>
<path d="M60.8926 6.72932C60.3223 6.06634 59.657 5.5691 58.9284 5.20446C58.8016 5.13816 58.6749 5.10501 58.5165 5.07186C58.4532 5.03871 58.3898 4.97241 58.3264 4.93926C57.6928 4.67407 57.0275 4.50832 56.3305 4.40888C52.9089 3.94479 48.9804 5.27076 46.7628 6.19893C46.636 6.26523 46.5093 6.29838 46.3826 6.36468C46.1925 6.46413 46.0024 6.53042 45.8123 6.62987C45.4955 6.76247 45.1787 6.92821 44.8302 7.09396C44.7668 7.12711 44.7351 7.12711 44.6718 7.16026L44.0698 6.43098L43.7847 6.09948L43.5313 5.80114L43.4362 5.66855L41.1235 2.88401L40.9334 2.65197L40.6799 2.35363H40.6483L39.983 2.51937L39.2226 2.68512C38.8107 2.48622 38.3038 2.35363 37.7336 2.25418C36.5931 2.08843 35.1357 2.25418 33.4883 2.68512C31.8409 3.11606 29.9717 3.87849 28.0074 4.90611C24.0473 6.96136 19.6752 10.1105 15.4299 14.1547C13.9409 15.547 12.5786 17.0056 11.3114 18.431C10.0758 19.8232 8.96695 21.2487 7.95315 22.6078C5.89387 25.4255 4.34148 28.1437 3.32768 30.5967C2.66237 32.221 2.25052 33.7128 2.09211 35.0056C1.96539 35.9338 1.99707 36.7625 2.15547 37.4255C2.21884 37.6575 2.2822 37.8232 2.34556 38.0221C2.50397 38.4199 2.69406 38.7514 2.94751 39.0498L5.51369 41.8675L5.79882 42.1658L5.83051 42.1326C5.89387 42.0332 5.98891 41.9338 6.08396 41.8675L6.11564 41.8343L6.21068 41.7349C6.27404 41.6354 6.36909 41.5691 6.43245 41.4697C6.49581 41.4034 6.52749 41.3702 6.59086 41.3371C6.65422 41.3039 6.6859 41.2376 6.74926 41.2045L6.81263 41.1382C6.87599 41.105 6.90767 41.0387 6.97103 41.0056C7.03439 40.9393 7.12944 40.873 7.1928 40.8067C7.22448 40.7735 7.28785 40.7404 7.31953 40.7072H7.35121C7.44625 40.6409 7.50961 40.5746 7.60466 40.5083C7.66802 40.4752 7.6997 40.442 7.76306 40.3757C7.85811 40.3094 7.92147 40.2431 8.01652 40.1768C8.07988 40.1437 8.11156 40.1105 8.17492 40.0774C8.26997 40.0111 8.36501 39.9448 8.46005 39.9117C8.52342 39.8785 8.5551 39.8454 8.61846 39.8122C8.7135 39.7459 8.80855 39.7128 8.90359 39.6465C8.96695 39.6133 8.99864 39.5802 9.062 39.547L9.12536 39.5139C9.2204 39.4807 9.28377 39.4144 9.37881 39.3813C9.41049 39.3481 9.47386 39.3481 9.50554 39.315C9.5689 39.2818 9.63226 39.2487 9.72731 39.2155L9.91739 39.1161L9.98076 39.0829L10.456 38.884C10.5193 38.8509 10.551 38.8509 10.6144 38.8177C10.6777 38.7846 10.7094 38.7846 10.7728 38.7514L10.8362 38.7183C10.8678 38.7183 10.8995 38.6851 10.9312 38.6851C10.9946 38.652 11.0579 38.652 11.153 38.6188H11.2163C11.3114 38.5857 11.3747 38.5857 11.4698 38.5525C11.5331 38.5194 11.6282 38.5194 11.6915 38.4862C11.7866 38.4531 11.8816 38.4531 11.9767 38.4199C12.0084 38.4199 12.04 38.3868 12.1034 38.3868C12.1351 38.3868 12.1984 38.3868 12.2301 38.3536C12.3252 38.3205 12.4202 38.3205 12.5153 38.3205C12.6103 38.3205 12.6737 38.2873 12.7687 38.2873C12.8321 38.2873 12.8954 38.2542 12.9588 38.2542H13.2122C13.5291 38.2542 13.9092 38.2542 14.2894 38.2873H14.3528C14.733 38.3205 15.1765 38.3868 15.62 38.4862C15.7151 38.5194 15.8418 38.5194 15.9368 38.5525C15.9685 38.5194 15.9685 38.4531 16.0002 38.4199C16.2537 37.989 16.4754 37.5249 16.7289 37.094C18.1545 34.6078 19.6752 32.4199 21.2276 30.4973C21.7662 29.8343 22.3048 29.2376 22.8434 28.6409C25.0927 26.1879 27.3421 24.2984 29.3697 22.8398C29.8133 22.5083 30.2885 22.21 30.7003 21.9116C31.3023 21.5139 31.8725 21.1824 32.4111 20.8509C32.8547 20.5857 33.2665 20.3536 33.6784 20.1547C34.3437 19.7901 34.9456 19.4918 35.4842 19.2597L35.9594 19.0608C36.1812 18.9614 36.403 18.8619 36.5931 18.7956C36.4346 18.7625 36.2446 18.7625 36.0862 18.7625H35.4525C35.2941 18.7625 35.104 18.7625 34.9456 18.7956C34.6288 18.8288 34.2803 18.8619 33.9318 18.8951C33.8051 18.9282 33.7101 18.9282 33.5833 18.9614C34.4387 18.4973 35.2941 18.1658 36.0862 17.9006C36.6247 17.7348 37.1633 17.6023 37.6702 17.5028C38.3672 17.3702 39.0325 17.2708 39.6345 17.2376C40.0463 17.2045 40.4265 17.2045 40.775 17.2045C41.1235 17.2045 41.472 17.2376 41.7571 17.2376C42.8026 17.3039 43.4362 17.4697 43.4362 17.4697C43.2778 17.2376 43.0877 17.0719 42.8976 16.9061C42.5175 16.6078 42.1056 16.4089 41.7254 16.2431C41.567 16.1768 41.4403 16.1437 41.3136 16.0774C41.2185 16.0442 41.1235 16.0111 41.0601 16.0111C41.2502 15.9779 41.4086 15.9448 41.567 15.9448C41.7571 15.9116 41.9155 15.9116 42.1056 15.8785C43.5946 15.7459 44.9252 15.8785 45.9074 16.0442C47.0796 16.2763 47.8082 16.5746 47.8082 16.5746C47.6498 16.2431 47.3964 15.9448 47.1112 15.6796C46.9212 15.5139 46.6994 15.3481 46.5093 15.2155C46.9212 15.315 47.2696 15.4144 47.6498 15.547C48.6003 15.8453 49.3923 16.21 50.0259 16.5083L50.5962 16.8067C50.6596 16.8398 50.6912 16.873 50.7229 16.873C51.2932 17.2045 51.61 17.4365 51.61 17.4365C51.5149 17.0719 51.3249 16.7404 51.0714 16.442C51.008 16.3757 50.9447 16.2763 50.8813 16.21H50.913C50.9447 16.21 50.9764 16.2431 51.0397 16.2431C51.0714 16.2431 51.1348 16.2763 51.1981 16.3094C51.4516 16.4089 51.8318 16.5746 52.2753 16.8067C52.307 16.8067 52.307 16.8398 52.3387 16.8398L52.5288 16.9393C52.6872 17.0387 52.8456 17.105 53.004 17.2376L53.4792 17.536C53.5742 17.6023 53.6376 17.6354 53.7326 17.7017C53.891 17.8343 54.0811 17.9669 54.2395 18.1326C54.4296 18.2984 54.588 18.4641 54.7464 18.6299L54.8415 18.7293C54.9682 18.8619 55.0949 18.9945 55.19 19.1271C55.4117 19.3923 55.6018 19.6906 55.7919 19.989C56.0137 20.3536 56.1721 20.7846 56.3305 21.2155C56.3305 21.2487 56.3305 21.2818 56.3622 21.2818C56.4572 21.1824 56.6473 20.9835 56.8691 20.7183C58.7066 18.4641 64.2192 11.1713 60.8926 6.72932Z" fill="#132134"/>
<path d="M69.098 61.1935C69.098 61.1935 69.1613 60.6962 68.9079 60.2321C68.9079 60.199 68.8762 60.1658 68.8762 60.1658L68.8445 60.1327L68.7495 60.0332C68.6861 59.9669 68.6228 59.9006 68.5277 59.8343C68.496 59.8012 68.4327 59.768 68.3693 59.7349C68.2109 59.6686 68.0525 59.6023 67.8307 59.5692C67.6723 59.536 67.5139 59.536 67.3238 59.536H67.0704V59.6023C67.0704 59.6355 67.1021 59.6686 67.1021 59.7349C67.1021 59.768 67.1021 59.8012 67.1337 59.8012C67.1654 59.9006 67.1971 60.0664 67.2288 60.199C67.2288 60.199 67.2288 60.2321 67.1971 60.2984V60.3316C67.1021 60.5636 66.8486 61.094 66.2783 61.757C66.1833 61.8896 66.0883 61.989 65.9615 62.1216C64.3775 63.8454 60.9559 66.2653 53.7326 67.6244C51.2931 67.989 49.012 68.0222 47.1112 67.757C44.2598 67.3924 42.1372 66.431 41.1234 65.1382C41.0284 65.0388 40.965 64.9062 40.8699 64.8067C40.8066 64.7073 40.7749 64.641 40.7115 64.5415C40.6799 64.5084 40.6799 64.4752 40.6482 64.4421C40.2363 63.6465 40.0462 62.7846 40.0462 61.9559C40.0462 60.9283 40.363 59.9669 40.8699 59.2377C41.2818 58.641 41.8204 58.1769 42.4857 57.978C42.8025 57.8785 43.151 57.8122 43.4995 57.8454C43.5629 57.8454 43.6579 57.8454 43.7846 57.8785C44.0064 57.9117 44.3549 57.9448 44.7668 58.0111C44.7984 58.0111 44.8618 58.0111 44.8935 58.0443C46.2558 58.21 48.4101 58.4421 51.008 58.2763C55.7602 57.978 62.0014 56.42 67.6723 51.0498V51.0167C67.704 50.5526 67.6406 49.757 67.1021 49.1272C67.007 49.0277 66.912 48.9283 66.7852 48.8288C66.7219 48.7625 66.6268 48.7294 66.5635 48.6631C66.4684 48.6299 66.4051 48.5636 66.3417 48.5305L66.0566 48.3316V48.2984C66.0249 48.2321 65.9932 48.1658 65.9299 48.0995C64.4725 45.7791 62.4449 44.42 61.6212 43.7902C61.241 43.4918 60.9876 43.3592 60.9876 43.3592C59.2451 42.2321 58.9916 41.8675 59.1501 38.8509C59.2134 37.757 59.3085 36.3316 59.4352 34.3758C59.4352 34.1106 59.4669 33.8785 59.4669 33.6465V33.4808V32.6852C59.4669 32.5194 59.4352 32.3537 59.4352 32.2211C59.4352 32.1548 59.4352 32.0885 59.4035 32.0222C59.3718 31.8564 59.3718 31.6907 59.3401 31.525C59.3401 31.4587 59.3085 31.3592 59.3085 31.2929C59.3085 31.1935 59.2768 31.1272 59.2451 31.0277C59.2134 30.9614 59.2134 30.862 59.1817 30.7957C59.1501 30.6962 59.1184 30.5968 59.1184 30.4973C59.1184 30.4642 59.0867 30.431 59.0867 30.3979C59.0867 30.3647 59.055 30.3316 59.055 30.2984V30.2653L59.0233 30.1658C58.9916 30.0995 58.96 30.0332 58.96 29.9669V29.9338L58.9283 29.8675L58.8966 29.8012C58.8332 29.6686 58.8016 29.536 58.7382 29.4366L58.7065 29.3371C58.6432 29.2377 58.5798 29.1051 58.5164 29.0056L58.4847 28.9725L58.4531 28.9393C58.3897 28.873 58.358 28.8067 58.2947 28.7404L58.2313 28.641C58.1679 28.5415 58.1046 28.4752 58.0412 28.4089V28.1437C58.0095 28.0111 57.9778 27.8454 57.9462 27.6797C57.9462 27.6465 57.9145 27.5802 57.9145 27.5471V27.5139C57.9145 27.4476 57.8828 27.4145 57.8828 27.3482C57.8511 27.2156 57.8194 27.083 57.7561 26.9504C57.7561 26.9172 57.7244 26.8509 57.7244 26.8178L57.6294 26.5194C57.5977 26.4531 57.5977 26.3868 57.566 26.3537C57.5343 26.2542 57.5026 26.1548 57.4393 26.0553L57.3442 25.8564C57.3125 25.757 57.2492 25.6576 57.2175 25.5581L57.1225 25.3592C57.0591 25.2598 57.0274 25.1603 56.964 25.0609L56.869 24.862C56.8056 24.7625 56.7423 24.6631 56.6789 24.5305C56.6472 24.4642 56.6156 24.431 56.5839 24.3647C56.5522 24.3316 56.5205 24.2653 56.4888 24.2321C56.3938 24.1327 56.3304 24.0332 56.2354 23.9338L56.172 23.9006C56.0453 23.7681 55.9502 23.6355 55.8235 23.536L55.7918 23.5029C55.7285 23.4697 55.6651 23.4034 55.6334 23.3703H55.6017C55.5384 23.3371 55.5067 23.304 55.4433 23.2708L55.4117 23.2377C55.3483 23.2045 55.2533 23.1382 55.1265 23.0719C55.0948 23.0388 55.0315 23.0388 54.9681 23.0056C54.683 22.9062 54.3345 22.7736 53.891 22.641C53.8593 22.641 53.8276 22.641 53.7959 22.6078C53.4474 22.5084 53.0356 22.4089 52.592 22.3426C52.4336 22.3095 52.3069 22.3095 52.1485 22.2763C52.0851 22.2763 52.0218 22.2763 51.9267 22.2432H51.8317C51.4832 22.21 51.1664 22.1769 50.8179 22.1769H50.7862C50.3427 22.1769 49.8991 22.21 49.4873 22.3095C49.5823 22.1437 49.8674 21.9448 50.1209 21.7791C50.4694 21.5802 50.7862 21.4476 50.7862 21.4476C50.5961 21.4476 50.406 21.4808 50.2159 21.5139C50.1526 21.5139 50.0892 21.5471 50.0258 21.5471C49.9942 21.5471 49.9308 21.5471 49.8991 21.5802H49.8674C49.8358 21.5802 49.8041 21.5802 49.7724 21.6134C48.7903 21.8454 47.8398 22.21 47.3013 22.4421L47.1112 22.5415H47.0795C47.0161 22.5415 46.9844 22.5415 46.9211 22.5747C47.3013 21.8122 47.8715 21.4145 48.3151 21.2156C48.3784 21.1824 48.4735 21.1493 48.5368 21.1161C48.5685 21.1161 48.5685 21.1161 48.6002 21.083C48.6635 21.0498 48.7269 21.0498 48.7586 21.0167C48.8536 20.9835 48.917 20.9835 48.917 20.9835H48.4101C47.3329 21.1161 46.3508 21.4808 45.5271 21.978C44.9568 22.3095 44.4499 22.6741 44.0064 23.0388C43.8797 23.0719 43.7846 23.1051 43.6579 23.1051C42.454 23.3703 41.0917 23.7018 39.6661 24.1658C39.1275 24.3316 38.5889 24.5305 38.0503 24.7294C37.6385 24.8951 37.1949 25.0609 36.7831 25.2266C36.4662 25.3592 36.1811 25.4918 35.8643 25.6244C33.6783 26.652 31.4923 28.0111 29.6865 29.8343L29.4964 30.0332L29.0211 30.5305L28.8311 30.7294C28.7677 30.8288 28.6727 30.9283 28.6093 30.9946C28.2608 31.3924 27.944 31.8233 27.6272 32.2874C27.4054 32.6189 27.1836 32.9835 26.9935 33.3482L26.9619 33.3813C26.55 34.1437 26.1698 34.9393 25.8847 35.8343C25.7263 36.2653 25.5996 36.7294 25.4728 37.1935C25.4412 37.3261 25.4095 37.4255 25.3778 37.5581L25.3461 37.6244C25.2194 38.1216 25.1243 38.652 25.061 39.1824C25.061 39.2819 25.0293 39.3813 25.0293 39.5139C24.9976 39.7791 24.9659 40.0443 24.9659 40.3426C24.9343 40.6078 24.9343 40.8399 24.9343 41.1051V42.1327C24.9343 42.431 24.9343 42.7294 24.9659 43.0277V43.0609C24.9659 43.3592 24.9976 43.6576 25.0293 43.989C25.0293 44.1216 25.061 44.2542 25.061 44.3868V44.4863C25.061 44.5526 25.061 44.6189 25.0927 44.7183C25.1243 45.0498 25.1877 45.4145 25.2194 45.7791C25.2194 45.8785 25.2511 45.978 25.2511 46.0774C25.3144 46.3758 25.3461 46.7073 25.4095 47.0056C25.4095 47.0056 25.3461 46.6078 25.3778 46.0111C25.3778 45.8785 25.4095 45.7128 25.4095 45.5802C25.4412 45.2487 25.5045 44.8509 25.6312 44.4863L25.7263 44.1879C25.7263 44.1548 25.758 44.1216 25.7897 44.0553C25.853 43.8896 25.9481 43.6907 26.0431 43.525C26.0748 43.6576 26.0748 43.7901 26.1065 43.8896V45.6465C26.1381 46.7736 26.2332 48.1327 26.455 49.2929C26.455 49.2929 26.4866 47.2045 26.8351 46.9393C26.8351 46.9393 27.4371 50.8509 27.9757 52.3095C28.039 52.5084 28.1341 52.641 28.1974 52.7404V52.3426L28.1341 50.1879V49.9559C28.5459 50.8509 29.0211 51.746 29.5597 52.7073C29.7181 52.9725 29.8449 53.2377 30.0033 53.5029C28.9895 54.431 28.039 55.7901 27.342 57.3813C27.247 57.6465 27.1203 57.9117 27.0252 58.1769C26.9619 58.3426 26.9302 58.4752 26.8668 58.641C26.8668 58.6741 26.8351 58.7404 26.8351 58.7736C26.8035 58.873 26.7718 59.0056 26.7401 59.1051C26.7401 59.1714 26.7084 59.2045 26.7084 59.2708C26.6767 59.3703 26.645 59.5029 26.6134 59.6023C26.6134 59.6686 26.5817 59.7018 26.5817 59.7681L26.4866 60.2653C26.455 60.431 26.4233 60.5968 26.4233 60.7625C26.4233 60.8288 26.4233 60.862 26.3916 60.9283C26.3916 61.0609 26.3599 61.1603 26.3599 61.2929C26.3599 61.3592 26.3599 61.4255 26.3282 61.4918C26.3282 61.6244 26.2966 61.7239 26.2966 61.8564V63.0167C26.2966 63.1493 26.2966 63.2819 26.3282 63.4476V63.5471C26.3282 63.7128 26.3599 63.8785 26.3916 64.0774C26.3916 64.1437 26.3916 64.1769 26.4233 64.2432C26.4233 64.3758 26.455 64.4752 26.4866 64.6078C26.4866 64.6741 26.5183 64.7404 26.5183 64.8067C26.55 64.9062 26.55 65.0388 26.5817 65.1382C26.5817 65.2045 26.6134 65.2708 26.6134 65.3371C26.645 65.4366 26.6767 65.536 26.6767 65.6686C26.7084 65.7349 26.7084 65.8012 26.7401 65.9006C26.7718 66.0001 26.8035 66.1327 26.8351 66.2321C26.8668 66.2984 26.8668 66.3647 26.8985 66.431C26.9302 66.5305 26.9619 66.6631 26.9935 66.7625C27.0252 66.8288 27.0252 66.8951 27.0569 66.9614C27.0886 67.094 27.1519 67.2266 27.1836 67.3261C27.2153 67.3924 27.2153 67.4255 27.247 67.4918L27.7222 68.5857C27.7539 68.652 27.7856 68.6852 27.8173 68.7515L28.0073 69.1493C28.039 69.2156 28.0707 69.2819 28.1341 69.3482C28.1974 69.4476 28.2608 69.5802 28.3242 69.6796C28.3558 69.7459 28.4192 69.8122 28.4509 69.8785C28.5142 69.978 28.5776 70.1106 28.6727 70.21C28.736 70.2763 28.7677 70.3426 28.8311 70.4421C28.8944 70.5415 28.9895 70.6741 29.0528 70.7736C29.1162 70.8399 29.1479 70.9062 29.2112 71.0056C29.3063 71.1051 29.3696 71.2377 29.4647 71.3371C29.528 71.4034 29.5597 71.4697 29.6231 71.536C29.7181 71.6686 29.8132 71.768 29.9399 71.9006L30.0983 72.0664C30.2567 72.2321 30.4151 72.431 30.5735 72.5968C30.5735 72.5968 30.4785 72.4642 30.3518 72.199C30.3201 72.1658 30.2884 72.0995 30.2884 72.0332L30.1934 71.8343C30.1617 71.768 30.13 71.7018 30.0983 71.6023C29.8449 71.0056 29.6231 70.1437 29.6548 69.2156L29.9399 69.6134C30.0349 69.8454 30.1934 70.1437 30.3518 70.4752C30.4151 70.5747 30.4785 70.7073 30.5102 70.8067C30.7636 71.2708 31.0171 71.8012 31.3339 72.2984C31.7141 72.9283 32.0942 73.525 32.5061 74.0885C32.5061 74.0885 32.0309 73.0277 31.8725 72.3316C31.8408 72.1327 31.8091 71.9669 31.8408 71.8675C31.8725 71.9006 31.9041 71.9669 31.9675 72.0001C31.9992 72.0332 32.0309 72.0995 32.0942 72.1327C32.1576 72.2321 32.2526 72.3647 32.3794 72.5305L32.4427 72.5968C32.5061 72.6631 32.5378 72.7625 32.6011 72.8288C32.6645 72.9283 32.7279 73.0277 32.8229 73.1272C33.4882 74.0222 34.407 75.2156 35.0406 75.8454C35.2624 76.0443 35.4524 76.21 35.5792 76.2763L34.6604 74.5526C36.7514 76.3426 45.4321 78.6299 53.9543 76.0774C54.9998 75.7791 56.0136 75.3813 57.0274 74.9172C57.6294 74.652 58.2313 74.3205 58.8332 73.989L58.9283 73.9227C59.3401 73.6907 59.752 73.4255 60.1639 73.1603C60.4807 72.9614 60.7975 72.7294 61.0826 72.5305C61.5895 72.1658 62.0964 71.768 62.6033 71.3371C62.635 71.304 62.6667 71.2708 62.6984 71.2708C63.1736 70.8399 63.6488 70.3758 64.0607 69.9117C64.6309 69.2819 65.1378 68.652 65.5814 68.0222L65.613 67.989C65.7398 67.8233 65.8348 67.6907 65.9299 67.525L65.9615 67.4918C65.9932 67.4255 66.0249 67.3924 66.0566 67.3261C66.215 67.094 66.3417 66.8951 66.5001 66.6631C66.5318 66.5968 66.5635 66.5636 66.5952 66.4973C66.6585 66.3647 66.7219 66.2653 66.8169 66.1327C66.8803 66.0332 66.912 65.9669 66.9753 65.8675C67.0387 65.768 67.1021 65.6686 67.1337 65.5692C67.2288 65.4034 67.3238 65.2045 67.4189 65.0388L67.5139 64.8399L67.704 64.4421L67.799 64.2432L67.8307 64.1769C67.8941 64.0111 67.9891 63.8454 68.0525 63.6797V63.6465C68.3376 63.3813 68.5277 63.1161 68.7178 62.8841C68.7495 62.8509 68.7812 62.8178 68.7812 62.7846C68.9713 62.1548 69.098 61.6576 69.098 61.1935ZM18.1228 54.7625C18.1228 54.7294 18.1228 54.6962 18.0911 54.6299C17.9961 54.0664 17.901 53.4697 17.8693 52.873V52.7404C17.7743 52.7736 17.6792 52.9062 17.5525 53.0719C17.5208 53.1382 17.4575 53.2045 17.4258 53.304C17.1407 53.8675 16.8872 54.6631 16.8872 54.6631C16.9189 54.3979 16.9506 54.1327 16.9506 53.8675V53.768C16.9823 53.5029 17.0139 53.2045 17.0456 52.9393V52.8399C17.0773 52.5084 17.1407 52.21 17.204 51.9117C17.204 51.8785 17.204 51.8454 17.2357 51.7791V51.746C17.2357 51.7128 17.2357 51.6797 17.2674 51.6465C17.2674 51.5802 17.2991 51.5471 17.2991 51.4808C17.3307 51.2487 17.3941 51.0167 17.4258 50.7846C17.4575 50.5857 17.4892 50.3868 17.5208 50.2211V50.1548C17.5208 50.1216 17.5208 50.0885 17.5525 50.0885V50.0222C17.5525 49.989 17.5842 49.9227 17.5842 49.8896C17.5842 49.8564 17.5842 49.8233 17.6159 49.7901C17.6159 49.7239 17.6476 49.6576 17.6476 49.6244C17.6476 49.5913 17.6792 49.525 17.6792 49.4918C17.6792 49.4255 17.7109 49.3592 17.7109 49.3261C17.7109 49.2929 17.7109 49.2598 17.7426 49.2266C17.7426 49.1935 17.7426 49.1603 17.7743 49.1603C17.7743 49.094 17.806 49.0609 17.806 49.0277V48.9283L17.7426 48.9946C17.6792 49.0277 17.6476 49.094 17.5842 49.1272L17.5208 49.1935C17.4575 49.2598 17.3941 49.3261 17.3624 49.3924L17.3307 49.4255L17.1407 49.7239L17.109 49.757C17.109 49.7902 17.0773 49.7901 17.0773 49.8233L16.9823 50.0222V50.0885C16.9506 50.1879 16.8872 50.2874 16.8555 50.3868C16.7605 50.652 16.6654 50.9172 16.6021 51.1493C16.5704 51.2156 16.5704 51.315 16.5387 51.3482C16.507 51.4808 16.4754 51.6134 16.4754 51.6465V51.6796V51.6465C16.4754 51.5471 16.4754 51.4808 16.507 51.3813C16.507 51.2156 16.5387 51.0167 16.5387 50.8509C16.5387 50.7183 16.5704 50.5526 16.6021 50.42C16.6021 50.3868 16.6021 50.3205 16.6338 50.2874C16.6338 50.2211 16.6654 50.1548 16.6654 50.0885C16.6654 50.0222 16.6971 49.9559 16.6971 49.8896V49.7901C16.6971 49.7239 16.7288 49.6244 16.7288 49.5581V49.3924V49.3261C16.7288 49.2929 16.7288 49.2598 16.7605 49.2266C16.7922 49.1272 16.8238 48.9946 16.8238 48.8951V48.862C16.8555 48.7957 16.8555 48.6962 16.8872 48.6299V48.5968C16.9189 48.431 16.9823 48.2653 17.0139 48.0995V48.0332C17.0139 48.0001 17.0139 47.9669 17.0456 47.9338C17.109 47.6686 17.204 47.4034 17.2674 47.1714V47.1382C17.3307 46.9393 17.4258 46.7073 17.4892 46.5084V46.4752C17.5208 46.3758 17.5525 46.3095 17.5842 46.21C17.6476 46.0774 17.6792 45.9448 17.7426 45.8122C17.7426 45.7791 17.7743 45.7128 17.8376 45.5802C17.8693 45.5471 17.8693 45.4808 17.901 45.4476C17.9327 45.3813 17.9644 45.315 17.9961 45.2156L18.0277 45.1493L18.5663 44.1216C18.598 44.0885 18.598 44.0222 18.6297 43.989V43.9559L18.6614 43.8896C18.7247 43.7901 18.7881 43.6576 18.8514 43.5581C18.9465 43.3924 19.0099 43.2266 19.1049 43.094C19.2633 42.7957 19.39 42.5305 19.4851 42.3979C19.5168 42.2984 19.5484 42.2653 19.5801 42.2321C19.5484 42.2321 19.39 42.0995 19.1366 41.9338C18.8198 41.7349 18.3762 41.4697 17.8376 41.2045C17.6476 41.1051 17.4892 41.0388 17.2991 40.9393C17.0773 40.8399 16.8238 40.7404 16.5704 40.641C16.507 40.6078 16.4437 40.6078 16.3803 40.5747C16.1585 40.5084 15.9684 40.4421 15.7467 40.3758C15.5883 40.3426 15.4299 40.3095 15.3031 40.2763C15.1764 40.2432 15.0497 40.2432 14.923 40.21C14.8596 40.21 14.7962 40.21 14.7329 40.1769C14.6695 40.1769 14.6062 40.1769 14.5428 40.1437C14.3844 40.1437 14.1943 40.1106 14.0359 40.1106H13.7824C13.4023 40.1106 13.0538 40.1437 12.7053 40.21H12.6419C12.0083 40.3095 11.4063 40.4752 10.8044 40.7073C10.6143 40.7736 10.4242 40.873 10.2025 40.9725C10.1391 41.0056 10.1074 41.0388 10.044 41.0388L9.85396 41.1382C9.2837 41.4366 8.74511 41.8343 8.23821 42.2653H8.20653C7.76299 42.6299 7.38282 43.0609 7.03433 43.4918L6.74919 43.8896C6.62247 44.0553 6.52742 44.2211 6.43238 44.3868C6.24229 44.6852 6.0522 45.0167 5.8938 45.3482C5.83044 45.4808 5.76707 45.5802 5.73539 45.7128C5.73539 45.7459 5.70371 45.746 5.70371 45.7791C5.3869 46.5747 5.13345 47.4034 5.0384 48.2984C5.00672 48.4642 5.00672 48.6299 4.97504 48.8288V48.8951C4.97504 49.0277 4.94336 49.1603 4.94336 49.3261V49.9227C4.94336 50.0553 4.94336 50.1879 4.97504 50.3205V50.4863C4.97504 50.5857 5.00672 50.6852 5.00672 50.7846V50.8178C5.00672 50.8841 5.00672 50.9172 5.0384 50.9835C5.0384 51.083 5.07008 51.1824 5.07008 51.2487C5.07008 51.315 5.10177 51.3813 5.10177 51.4476C5.13345 51.5471 5.13345 51.6134 5.16513 51.7128C5.16513 51.7791 5.19681 51.8454 5.22849 51.9117V51.9448L5.26017 52.0111V52.0774L5.29185 52.1437C5.32354 52.21 5.32353 52.2763 5.35522 52.3426C5.3869 52.4089 5.3869 52.5084 5.41858 52.5747C5.45026 52.641 5.48194 52.7073 5.48194 52.8067L5.51362 52.873C5.5453 52.9393 5.5453 52.9725 5.57699 53.0388C5.60867 53.1051 5.64035 53.1714 5.67203 53.2708L5.76707 53.4697C5.79875 53.5029 5.79875 53.536 5.83044 53.5692C5.86212 53.6023 5.86212 53.6355 5.8938 53.6686L5.98884 53.8675C6.02052 53.9338 6.0522 54.0332 6.11557 54.0995C6.14725 54.1658 6.17893 54.2321 6.21061 54.2653C6.24229 54.3316 6.30566 54.431 6.33734 54.4973C6.36902 54.5636 6.4007 54.5968 6.43238 54.6631C6.46406 54.7294 6.52742 54.8288 6.59079 54.8951C6.62247 54.9614 6.65415 54.9946 6.68583 55.0277C6.74919 55.094 6.78087 55.1935 6.84424 55.2598C6.87592 55.2929 6.9076 55.3592 6.93928 55.3924C7.00264 55.4587 7.06601 55.5581 7.12937 55.6244C7.16105 55.6576 7.19273 55.6907 7.22441 55.757C7.28778 55.8233 7.35114 55.9227 7.4145 55.989L7.50954 56.0885C7.57291 56.1548 7.63627 56.2542 7.73131 56.3205L7.82636 56.42L8.04813 56.652C8.07981 56.6852 8.11149 56.7183 8.14317 56.7183C8.20653 56.7846 8.30158 56.8509 8.39662 56.9504C8.4283 56.9835 8.45998 56.9835 8.49166 57.0167C8.58671 57.083 8.65007 57.1493 8.74511 57.2156C8.7768 57.2487 8.80848 57.2487 8.80848 57.2819L9.09361 57.4808L9.15697 57.5139L9.4421 57.7128L9.50547 57.7459C9.60051 57.8122 9.72723 57.8785 9.82228 57.9448L9.88564 57.978C9.98069 58.0443 10.1074 58.1106 10.2025 58.1437L10.2658 58.1769C10.3925 58.2432 10.4876 58.2763 10.6143 58.3426L10.646 58.3758C10.7727 58.4421 10.8994 58.4752 10.9945 58.5415H11.0262C11.1529 58.5747 11.2796 58.641 11.4063 58.6741H11.438C11.5014 58.7073 11.5648 58.7073 11.6281 58.7404C11.6915 58.7736 11.7548 58.7736 11.8499 58.8067H11.8816C12.0083 58.8399 12.1667 58.873 12.2934 58.9062C12.4201 58.9393 12.5786 58.9725 12.7053 58.9725C13.1488 59.0388 13.5924 59.0719 14.0359 59.1051H14.3527C14.5111 59.1051 14.6378 59.1051 14.7962 59.0719C14.9863 59.0388 15.2081 59.0388 15.4299 59.0056C15.62 58.9725 15.81 58.9393 15.9685 58.9062C16.2536 58.8399 16.5387 58.7736 16.7922 58.6741C17.6159 58.4421 18.3129 58.1106 18.7564 57.7459C18.7564 57.7459 18.4713 56.42 18.2495 55.094C18.1861 55.0277 18.1545 54.8951 18.1228 54.7625Z" fill="#90694C"/>
<path d="M38.4622 5.50268L38.3671 4.17672L39.0008 2.71815L39.2542 2.65186C38.8424 2.45296 38.3354 2.32036 37.7652 2.22092C36.6247 2.05517 35.1673 2.22092 33.5199 2.65186C31.8725 3.08279 30.0033 3.84522 28.039 4.87285C24.0789 6.9281 19.7068 10.0773 15.4616 14.1215C13.9725 15.5137 12.6102 16.9723 11.343 18.3977C10.1074 19.79 8.99857 21.2154 7.98477 22.5745C5.92548 25.3922 4.3731 28.1104 3.3593 30.5635C2.69399 32.1878 2.28213 33.6795 2.12373 34.9723C1.997 35.9005 2.02868 36.7292 2.18709 37.3922C2.25045 37.6242 2.31382 37.79 2.37718 37.9889C2.53558 38.3867 2.72567 38.7181 2.97912 39.0165L5.54531 41.8342L5.83044 42.1325L5.86212 42.0994C5.92548 41.9999 6.02053 41.9005 6.11557 41.8342L6.14725 41.801L6.2423 41.7016C6.30566 41.6021 6.4007 41.5358 6.46406 41.4364C6.52743 41.3701 6.55911 41.3369 6.62247 41.3038C6.68583 41.2706 6.71751 41.2043 6.78088 41.1712L6.84424 41.1049C6.9076 41.0717 6.93928 41.0054 7.00265 40.9723C7.06601 40.906 7.16105 40.8397 7.22442 40.7734C7.2561 40.7402 7.31946 40.7071 7.35114 40.674H7.38282C7.47787 40.6077 7.54123 40.5414 7.63627 40.4751C7.69964 40.4419 7.73132 40.4088 7.79468 40.3425C7.88972 40.2762 7.95309 40.2099 8.04813 40.1436C8.11149 40.1104 8.14317 40.0773 8.20654 40.0441C8.30158 39.9778 8.39662 39.9115 8.49167 39.8784C8.55503 39.8452 8.58671 39.8121 8.65007 39.7789C8.74512 39.7126 8.84016 39.6795 8.93521 39.6132C8.99857 39.58 9.03025 39.5469 9.09361 39.5137L9.15697 39.4806C9.75892 37.7237 10.6777 35.7679 11.8816 33.7789C13.3389 31.3259 15.2081 28.7402 17.4258 26.1546C18.8198 24.5303 20.3405 22.906 21.9879 21.348C24.1105 19.3259 26.2966 17.5027 28.4509 15.9115C29.9082 14.8507 31.3339 13.8894 32.7279 13.0607C32.8546 12.9944 32.9813 12.8949 33.1397 12.8287C33.5199 12.5966 33.8684 12.3977 34.2486 12.1988C35.0406 11.7679 35.8326 11.3701 36.593 11.0386L36.2128 10.5745L36.1494 10.5082L35.6742 9.94467L33.0447 6.62976L33.0764 4.24302L33.0447 4.20987L34.9139 3.61318L38.4622 5.50268Z" fill="#2F83C1"/>
<path d="M69.0981 61.1934C69.0981 61.1934 69.1614 60.6962 68.908 60.2321C68.908 60.199 68.8763 60.1658 68.8763 60.1658L68.8446 60.1327L68.7496 60.0332C68.6862 59.9669 68.6229 59.9006 68.5278 59.8343C68.4961 59.8012 68.4328 59.768 68.3694 59.7349C68.211 59.6686 68.0526 59.6023 67.8308 59.5691C67.6724 59.536 67.514 59.536 67.3239 59.536H67.0705V59.6023C67.0705 59.6354 67.1021 59.6686 67.1021 59.7349C67.1021 59.768 67.1021 59.8012 67.1338 59.8012C67.1655 59.9006 67.1972 60.0664 67.2289 60.199C67.2289 60.199 67.2289 60.2321 67.1972 60.2984V60.3316C67.1022 60.5636 66.8487 61.094 66.2784 61.757C66.1834 61.8896 66.0883 61.989 65.9616 62.1216C64.3776 63.8454 60.956 66.2653 53.7326 67.6244C51.2932 67.989 49.0121 68.0222 47.1112 67.757C44.2599 67.3923 42.1373 66.431 41.1235 65.1382C41.0284 65.0387 40.9651 64.9061 40.87 64.8067C40.8067 64.7072 40.775 64.6409 40.7116 64.5415C40.6799 64.5084 40.6799 64.4752 40.6483 64.4421C40.2364 63.6465 40.0463 62.7846 40.0463 61.9559C40.0463 60.9282 40.3631 59.9669 40.87 59.2376C41.2819 58.641 41.8205 58.1769 42.4858 57.978C42.8026 57.8785 43.1511 57.8122 43.4996 57.8454C43.5629 57.8454 43.658 57.8454 43.7847 57.8785C44.0065 57.9117 44.355 57.9448 44.7668 58.0111C44.7985 58.0111 44.8619 58.0111 44.8936 58.0443C46.2558 58.21 48.4102 58.4421 51.008 58.2763C55.7602 57.978 62.0015 56.42 67.6724 51.0498V51.0166C67.7041 50.5526 67.6407 49.757 67.1021 49.1271C67.0071 49.0277 66.9121 48.9282 66.7853 48.8288C66.722 48.7625 66.6269 48.7294 66.5636 48.6631C66.4685 48.6299 66.4052 48.5636 66.3418 48.5305L66.0567 48.3316V48.2984C66.025 48.2321 65.9933 48.1658 65.9299 48.0995C64.4726 45.7791 62.445 44.42 61.6213 43.7901C61.2411 43.4918 60.9877 43.3592 60.9877 43.3592C59.2452 42.2321 58.9917 41.8675 59.1501 38.8509C59.2135 37.757 59.3086 36.3316 59.4353 34.3758C59.4353 34.1106 59.467 33.8785 59.467 33.6465V33.4807V32.6852C59.467 32.5194 59.4353 32.3537 59.4353 32.2211C59.4353 32.1548 59.4353 32.0885 59.4036 32.0222C59.3719 31.8564 59.3719 31.6907 59.3402 31.5249C59.3402 31.4586 59.3085 31.3592 59.3085 31.2929C59.3085 31.1934 59.2769 31.1271 59.2452 31.0277C59.2135 30.9614 59.2135 30.8619 59.1818 30.7956C59.1501 30.6962 59.1185 30.5968 59.1185 30.4973C59.1185 30.4642 59.0868 30.431 59.0868 30.3979C59.0868 30.3647 59.0551 30.3316 59.0551 30.2984V30.2653L59.0234 30.1658C58.9917 30.0995 58.9601 30.0332 58.9601 29.9669V29.9338L58.9284 29.8675L58.8967 29.8012C58.8333 29.6686 58.8016 29.536 58.7383 29.4365L58.7066 29.3371C58.6432 29.2376 58.5799 29.105 58.5165 29.0056L58.4848 28.9724L58.4532 28.9393C58.3898 28.873 58.3581 28.8067 58.2947 28.7404L58.2314 28.641C58.168 28.5415 58.1047 28.4752 58.0413 28.4089L57.7878 28.1437C57.6928 28.0774 57.5978 28.0111 57.5027 27.978C57.471 27.9448 57.4394 27.9448 57.4077 27.9448L57.2176 27.8454C57.1859 27.8454 57.1542 27.8122 57.1225 27.8122C57.0592 27.7791 56.9958 27.7791 56.9641 27.7459C56.9325 27.7459 56.9008 27.7128 56.8374 27.7128C56.774 27.7128 56.7424 27.6796 56.679 27.6796H55.982C55.9503 27.6796 55.9186 27.6796 55.887 27.7128C55.8553 27.7128 55.8236 27.7128 55.7919 27.7459C55.7286 27.7459 55.6652 27.7791 55.5702 27.8122H55.5068C55.3167 27.8785 55.1583 27.9448 54.9682 28.0111L54.9049 28.0443C54.8415 28.0774 54.7781 28.1106 54.6831 28.1437L54.588 28.1769L54.3979 28.2763L54.3029 28.3426L54.1128 28.4421L54.0178 28.5084C53.9544 28.5415 53.891 28.6078 53.8277 28.641L53.7643 28.6741C53.701 28.7404 53.6059 28.7735 53.5426 28.8398L53.5109 28.873C53.4158 28.9393 53.3525 29.0056 53.2574 29.0387C53.099 29.1382 52.9406 29.2708 52.7822 29.3702C52.6555 29.4697 52.5288 29.5691 52.3703 29.6686L52.307 29.7017C52.1803 29.8012 52.0219 29.9006 51.8951 29.9669L51.8318 30.0001C51.705 30.0995 51.5466 30.1658 51.4199 30.2653L51.3565 30.2984C51.2298 30.3979 51.0714 30.4642 50.913 30.5305L50.8496 30.5636C50.6912 30.6299 50.5645 30.6962 50.4061 30.7625L50.3427 30.7956C50.1843 30.8619 50.0259 30.8951 49.8675 30.9614H49.8358C49.6774 30.9945 49.4873 31.0277 49.3289 31.0608C49.0438 31.094 48.727 31.1271 48.4419 31.1271C47.9666 31.1271 47.4914 31.094 46.9845 31.0277L46.5093 30.9282C46.4459 30.9282 46.3826 30.8951 46.3509 30.8951C45.939 30.7956 45.4955 30.6962 45.0836 30.5968C44.8936 30.5636 44.7351 30.4973 44.5451 30.4642C44.2599 30.3979 43.9748 30.3316 43.658 30.2653C43.5946 30.2653 43.5313 30.2321 43.4996 30.2321C43.4679 30.2321 43.4045 30.199 43.3728 30.199C43.3095 30.199 43.2461 30.1658 43.1828 30.1658C43.1194 30.1658 43.056 30.1327 42.9927 30.1327H42.9293C42.8659 30.1327 42.8026 30.0995 42.7709 30.0995C42.6442 30.0664 42.5175 30.0332 42.359 30.0332C42.3274 30.0332 42.264 30.0332 42.2323 30.0001C42.1373 30.0001 42.0422 29.9669 41.9472 29.9669C41.8838 29.9669 41.8521 29.9669 41.7888 29.9338C41.6937 29.9338 41.6304 29.9006 41.5353 29.9006H40.078C39.9196 29.9006 39.7929 29.9338 39.6345 29.9338H39.5077C39.4127 29.9338 39.3176 29.9669 39.2226 29.9669H39.1909C39.1276 29.9669 39.0959 30.0001 39.0325 30.0001C38.9375 30.0332 38.8424 30.0332 38.7474 30.0664C38.684 30.0664 38.6207 30.0995 38.589 30.0995C38.4939 30.1327 38.3989 30.1658 38.3038 30.1658C38.2405 30.1658 38.2088 30.199 38.1454 30.2321C38.0504 30.2653 37.9237 30.2984 37.8286 30.3316C37.7653 30.3647 37.7336 30.3647 37.7019 30.3979C37.5435 30.4642 37.3851 30.5305 37.2584 30.5968C36.0545 31.326 35.009 32.3205 34.217 33.4476C33.9318 33.8454 33.6784 34.2432 33.4566 34.641C33.2031 35.0719 33.0131 35.536 32.823 36.0001C32.7596 36.1327 32.7279 36.2653 32.6646 36.3979C32.6012 36.6299 32.5062 36.8619 32.4428 37.094C32.4428 37.1271 32.4428 37.1603 32.4111 37.1603C32.3478 37.4255 32.2844 37.6907 32.221 37.989C32.1577 38.2874 32.126 38.5526 32.0943 38.8509C32.0626 39.0166 32.0626 39.1492 32.0626 39.315C32.0309 39.7459 32.0309 40.1437 32.0626 40.5747V40.6741C32.0626 40.7735 32.0626 40.873 32.0943 41.0056C32.126 41.3039 32.1577 41.6023 32.221 41.9006C32.2527 42.0001 32.2844 42.0995 32.2844 42.2321C32.3161 42.3316 32.3161 42.431 32.3478 42.5305C32.5378 43.2929 32.823 43.989 33.1715 44.5857C34.4704 46.9393 36.6247 48.3647 38.2088 49.1271C38.8107 49.3923 39.4444 49.6575 40.1097 49.8896L40.0463 49.9559C39.9196 49.989 39.7929 50.0222 39.6345 50.0553C39.4127 50.1216 39.1276 50.2211 38.8424 50.3205C38.5256 50.42 38.1454 50.5857 37.7653 50.7515C36.7515 51.1824 35.6109 51.8122 34.5971 52.6741C34.4704 52.7735 34.3437 52.9061 34.217 53.0056C33.9952 53.2045 33.8051 53.4034 33.615 53.6354L33.5516 53.7017L33.4566 53.8012C33.3932 53.9006 33.2982 53.9669 33.2348 54.0664L33.1398 54.1658C33.0447 54.2984 32.9497 54.431 32.8863 54.5636C32.7913 54.6962 32.7279 54.8288 32.6329 54.9614C32.0309 56.0553 31.6824 57.3813 31.7775 58.9724V58.9061C31.7775 58.873 31.7775 58.8398 31.8092 58.8067V58.7736C31.8092 58.7404 31.8409 58.7072 31.8409 58.6409V58.6078C31.8409 58.5747 31.8725 58.5084 31.8725 58.4421C31.8725 58.3758 31.9042 58.3426 31.9359 58.2763V58.2432C31.9676 58.1769 31.9676 58.1106 31.9993 58.0443V58.0111C32.0309 57.9448 32.0309 57.8785 32.0626 57.8122V57.7791C32.0943 57.7128 32.126 57.6465 32.1577 57.547L32.1893 57.5139C32.221 57.4476 32.2527 57.3481 32.3161 57.2818C32.3794 57.1492 32.4428 57.0498 32.5062 56.9172C32.5378 56.884 32.5695 56.8177 32.6012 56.7846L32.6329 56.7514L32.823 56.4531C32.8863 56.3868 32.9497 56.2874 33.0131 56.2211L33.0764 56.1548C33.1398 56.0885 33.1715 56.0222 33.2348 55.989L33.2982 55.9227C33.3616 55.8564 33.4566 55.7901 33.52 55.6907C33.52 55.6907 32.1577 58.9393 32.7596 61.4918V61.4586V61.3923V61.2929V61.1603V60.9945C32.7596 60.9282 32.7596 60.8619 32.7913 60.7956C32.7913 60.7293 32.7913 60.6631 32.823 60.5968V60.5636C32.823 60.4973 32.8547 60.3979 32.8547 60.3316V60.2653C32.8863 60.1658 32.8863 60.0995 32.918 60.0001V59.9669C32.9497 59.8675 32.9814 59.768 32.9814 59.7017C32.9814 59.6686 33.0131 59.6354 33.0131 59.6023L33.0447 59.536C33.0764 59.4697 33.1081 59.3702 33.1398 59.3039C33.1715 59.2045 33.2348 59.105 33.2982 59.0056C33.2982 58.9724 33.3299 58.9393 33.3299 58.9393L33.52 58.6409C33.52 58.6409 33.4566 59.4365 33.4566 60.3979C33.4566 60.5636 33.4566 60.6962 33.4883 60.8619C33.4883 60.9614 33.4883 61.0608 33.52 61.1603C33.5833 60.1327 33.7734 59.1713 34.0269 58.2763C33.7734 59.1713 33.5833 60.1327 33.52 61.1603C33.4883 61.8233 33.4883 62.4863 33.5516 63.1824C33.6467 64.3426 33.9318 65.6023 34.407 66.8951C34.407 66.8951 33.9635 65.4034 34.5971 63.9117L34.7872 64.3095C34.8506 64.7404 34.9139 65.3702 35.0407 66.0664C35.1674 67.2266 35.6743 70.7073 37.9553 73.1271C37.9553 73.1271 37.1 71.9669 37.2267 70.4752C37.3217 70.6741 37.4168 70.8398 37.4801 71.0056C37.8603 71.768 38.6207 73.1603 39.476 74.1548C39.476 74.1548 38.8107 72.7956 38.9691 72.4973C38.9691 72.4973 41.1868 75.3813 41.8838 75.6465L40.9651 74.0553L40.9334 74.0222C44.1332 76.4752 48.5686 77.3702 54.0178 75.7791C54.9682 75.5139 55.9186 75.1492 56.9324 74.7183C57.5344 74.4531 58.1363 74.1216 58.7383 73.7901L58.8333 73.7238C59.2452 73.4918 59.657 73.2266 60.0689 72.9614C60.3857 72.7625 60.7025 72.5305 60.9877 72.3316C61.4946 71.9669 62.0015 71.5691 62.5084 71.1382C62.54 71.105 62.5717 71.0719 62.6034 71.0719C63.0786 70.6409 63.5538 70.1769 63.9657 69.7128C64.536 69.0829 65.0429 68.4531 65.4864 67.8233L65.5181 67.7901C65.6448 67.6244 65.7399 67.4918 65.8349 67.326L65.8666 67.2929C65.8983 67.2266 65.9299 67.1934 65.9616 67.1271C66.12 66.8951 66.2468 66.6962 66.4052 66.4642C66.4368 66.3979 66.4685 66.3647 66.5002 66.2984C66.5636 66.1658 66.6269 66.0664 66.722 65.9338C66.7853 65.8343 66.817 65.768 66.8804 65.6686C66.9437 65.5691 67.0071 65.4697 67.0388 65.3702C67.1338 65.2045 67.2289 65.0056 67.3239 64.8398L67.419 64.641L67.6091 64.2432L67.7041 64.0443L67.7358 63.978C67.7991 63.8122 67.8942 63.6465 67.9575 63.4807V63.4476C68.2427 63.1824 68.4328 62.9172 68.6229 62.6852C68.6545 62.652 68.6862 62.6189 68.6862 62.5857C68.9713 62.1548 69.0981 61.6575 69.0981 61.1934ZM17.8694 52.7404C17.7744 52.7736 17.6793 52.9061 17.5526 53.0719C17.5209 53.1382 17.4575 53.2045 17.4259 53.3039C17.1407 53.8675 16.8873 54.663 16.8873 54.663C16.919 54.3979 16.9506 54.1327 16.9506 53.8675V53.768C16.9823 53.5028 17.014 53.2045 17.0457 52.9393V52.8398C17.0774 52.5084 17.1407 52.21 17.2041 51.9117C17.2041 51.8785 17.2041 51.8454 17.2358 51.7791V51.7459C17.2358 51.7128 17.2358 51.6796 17.2675 51.6465C17.2675 51.5802 17.2991 51.547 17.2991 51.4807C17.3308 51.2487 17.3942 51.0166 17.4259 50.7846C17.4575 50.5857 17.4892 50.3868 17.5209 50.2211V50.1548C17.5209 50.1216 17.5209 50.0885 17.5526 50.0885V50.0222C17.5526 49.989 17.5843 49.9227 17.5843 49.8896C17.5843 49.8564 17.5843 49.8233 17.6159 49.7901C17.6159 49.7238 17.6476 49.6575 17.6476 49.6244C17.6476 49.5912 17.6793 49.5249 17.6793 49.4918C17.6793 49.4255 17.711 49.3592 17.711 49.326C17.711 49.2929 17.711 49.2597 17.7427 49.2266C17.7427 49.1934 17.7427 49.1603 17.7744 49.1603C17.7744 49.094 17.806 49.0608 17.806 49.0277V48.9282L17.7427 48.9945C17.6793 49.0277 17.6476 49.094 17.5843 49.1271L17.5209 49.1934C17.4575 49.2597 17.3942 49.326 17.3625 49.3923L17.3308 49.4255L17.1407 49.7238L17.109 49.757C17.109 49.7901 17.0774 49.7901 17.0774 49.8233L16.9823 50.0222V50.0885C16.9506 50.1879 16.8873 50.2874 16.8556 50.3868C16.7606 50.652 16.6655 50.9172 16.6021 51.1492C16.5705 51.2155 16.5705 51.315 16.5388 51.3481C16.5071 51.4807 16.4754 51.6133 16.4754 51.6465V51.6796V51.6465C16.4754 51.547 16.4754 51.4807 16.5071 51.3813C16.5071 51.2155 16.5388 51.0166 16.5388 50.8509C16.5388 50.7183 16.5705 50.5526 16.6021 50.42C16.6021 50.3868 16.6021 50.3205 16.6338 50.2874C16.6338 50.2211 16.6655 50.1548 16.6655 50.0885C16.6655 50.0222 16.6972 49.9559 16.6972 49.8896V49.7901C16.6972 49.7238 16.7289 49.6244 16.7289 49.5581V49.3923V49.326C16.7289 49.2929 16.7289 49.2597 16.7606 49.2266C16.7922 49.1271 16.8239 48.9945 16.8239 48.8951V48.8619C16.8556 48.7956 16.8556 48.6962 16.8873 48.6299V48.5968C16.919 48.431 16.9823 48.2653 17.014 48.0995V48.0332C17.014 48.0001 17.014 47.9669 17.0457 47.9338C17.109 47.6686 17.2041 47.4034 17.2675 47.1713V47.1382C17.3308 46.9393 17.4259 46.7073 17.4892 46.5084V46.4752C17.5209 46.3758 17.5526 46.3095 17.5843 46.21C17.6476 46.0774 17.6793 45.9448 17.7427 45.8122C17.7427 45.7791 17.7744 45.7128 17.8377 45.5802C17.8694 45.547 17.8694 45.4807 17.9011 45.4476C17.9328 45.3813 17.9644 45.315 17.9961 45.2155L18.0278 45.1492C17.9961 45.1161 17.9328 45.1161 17.9011 45.0829H17.8694L17.806 45.0498C17.5209 44.9172 17.2041 44.7846 16.8873 44.6852H16.8239C16.6021 44.6189 16.4121 44.5857 16.1903 44.5526C16.0636 44.5526 15.9368 44.5194 15.8101 44.5194H15.4933C15.3349 44.5194 15.1765 44.5526 15.0181 44.5526C14.9547 44.5526 14.923 44.5526 14.8597 44.5857C14.7963 44.5857 14.7013 44.6189 14.6379 44.6189C14.6062 44.6189 14.5745 44.6189 14.5429 44.652C14.4795 44.652 14.4478 44.6852 14.3845 44.6852C14.2894 44.7183 14.1627 44.7515 14.0676 44.7846C14.036 44.7846 13.9726 44.8177 13.9409 44.8177C13.8142 44.884 13.6558 44.9172 13.5291 44.9835C13.4657 45.0166 13.434 45.0498 13.3707 45.0498L13.1806 45.1492L13.1172 45.1824C13.0538 45.2155 12.9905 45.2487 12.9271 45.315C12.8638 45.3481 12.8004 45.3813 12.737 45.4476C12.6737 45.4807 12.6103 45.547 12.5469 45.5802C12.5153 45.6133 12.4519 45.6465 12.4202 45.6796C12.3252 45.7791 12.1984 45.8785 12.1034 45.978L11.945 46.1437C11.85 46.2432 11.7866 46.3426 11.6915 46.4421L11.6599 46.4752C11.6282 46.5415 11.5648 46.5747 11.5331 46.641L11.4381 46.7404C11.2797 46.9724 11.1213 47.2376 10.9946 47.5028C10.9629 47.536 10.9629 47.5691 10.9312 47.6023C10.8678 47.7349 10.8362 47.8675 10.7728 48.0001C10.7411 48.0664 10.7411 48.0995 10.7094 48.1658C10.6777 48.2984 10.6144 48.431 10.5827 48.5968V48.7293C10.551 48.8288 10.551 48.9282 10.5193 49.0277C10.5193 49.094 10.5193 49.1271 10.4877 49.1934C10.4877 49.2597 10.4877 49.2929 10.456 49.3592V49.4918C10.456 49.6575 10.4243 49.8233 10.456 49.989C10.456 50.1216 10.456 50.2542 10.4877 50.3868V50.4531C10.4877 50.5194 10.5193 50.5857 10.5193 50.652C10.551 50.9172 10.6144 51.1492 10.6777 51.4144C10.7411 51.6133 10.8045 51.7791 10.8678 51.9448C10.9946 52.2763 11.153 52.5747 11.3431 52.873C11.7232 53.4697 12.2301 54.0001 12.8321 54.3979C13.1489 54.6299 13.5291 54.7956 13.9092 54.9282C14.2577 55.0608 14.6379 55.1603 15.0498 55.1934C15.1448 55.1934 15.2399 55.2266 15.3032 55.2266H15.7151C15.8418 55.2266 15.9685 55.1934 16.0952 55.1934C16.1586 55.1934 16.2537 55.1934 16.317 55.1603C16.5071 55.1271 16.6655 55.094 16.8556 55.0608H16.8873C16.9506 55.0277 17.014 55.0277 17.109 54.9945C17.3308 54.9282 17.5526 54.8288 17.7427 54.7294L17.7744 54.6962C17.8377 54.6631 17.9011 54.6299 17.9328 54.6299C17.8377 54.0664 17.7427 53.4697 17.711 52.873C17.8694 52.8067 17.8694 52.7736 17.8694 52.7404Z" fill="#FCE9CD"/>
<path d="M39.2543 5.90051L39.3493 5.96681L39.2543 5.90051Z" fill="#4D9ED7"/>
<path d="M67.1655 59.8343C67.1655 59.8011 67.1655 59.768 67.1338 59.768C67.1022 59.7017 67.1022 59.6685 67.1022 59.6354C66.9437 59.105 66.7537 58.7072 66.5636 58.4089C66.3418 58.0442 66.1517 57.8453 66.1517 57.8453L66.2468 57.4476C66.2784 57.2818 66.3101 57.1161 66.3101 56.9503C66.4368 55.757 66.1517 54.8288 65.8983 54.2984C65.8666 54.1989 65.8349 54.1326 65.8032 54.0663C65.6131 54.1989 65.4547 54.3315 65.2646 54.4641C61.8431 56.884 58.0096 58.442 53.8594 59.105C51.0081 59.5691 47.9983 59.6023 44.8619 59.2045L44.9253 59.2376C44.9253 59.2376 43.0244 59.5028 42.5175 61.3923L42.5492 61.4255L42.3907 62.6851C42.4541 64.4089 43.1828 65.4697 44.0382 66.0332C44.9252 66.3978 46.0024 66.663 47.2063 66.8288C49.2656 67.094 51.6734 67.0277 54.0811 66.6299C57.3126 66.1658 61.8747 64.3757 65.1379 62.0553C65.8666 61.5249 66.5636 60.9614 67.1338 60.3978L67.1655 60.3647L67.1972 60.3315C67.1972 60.0995 67.1655 59.9669 67.1655 59.8343Z" fill="white"/>
<path d="M60.9876 43.4586C59.2452 42.3315 58.9917 41.9669 59.1501 38.9503C59.2135 37.8564 59.3085 36.431 59.4353 34.4752C59.4353 34.21 59.4669 33.9779 59.4669 33.7459V33.5801V32.7846C59.4669 32.6188 59.4353 32.4531 59.4353 32.3205C59.4353 32.2542 59.4353 32.1879 59.4036 32.1216C59.3719 31.9558 59.3719 31.7901 59.3402 31.6243C59.3402 31.558 59.3085 31.4586 59.3085 31.3923C59.3085 31.2928 59.2768 31.2265 59.2452 31.1271C59.2135 31.0608 59.2135 30.9614 59.1818 30.8951C58.9284 30.4973 58.6432 30.1658 58.2947 29.8674L58.2314 29.8011L58.168 29.768H58.1363C58.073 29.7348 58.0413 29.7017 57.9779 29.6685C57.9146 29.6354 57.8512 29.6022 57.8195 29.5691C57.3126 29.2376 56.7107 29.0387 56.1087 28.9393C55.7602 28.873 55.4117 28.873 55.0632 28.873C54.9048 28.873 54.7147 28.9061 54.5563 28.9061C54.1128 28.9724 53.6693 29.0719 53.194 29.2044C53.0356 29.3039 52.8772 29.4365 52.7188 29.5359C52.5921 29.6354 52.4654 29.7348 52.307 29.8343L52.2436 29.8674C52.1169 29.9669 51.9585 30.0663 51.8317 30.1326L51.7684 30.1658C51.6417 30.2652 51.4833 30.3315 51.3565 30.431L51.2932 30.4641C51.1664 30.5636 51.008 30.6299 50.8496 30.6962L50.7863 30.7293C50.6279 30.7956 50.5011 30.8619 50.3427 30.9282L50.2794 30.9614C50.121 31.0277 49.9626 31.0608 49.8041 31.1271H49.7725C49.6141 31.1602 49.424 31.1934 49.2656 31.2265C48.9804 31.2597 48.6636 31.2928 48.3785 31.2928C47.9033 31.2928 47.4281 31.2597 46.9212 31.1934L46.4459 31.094C46.3826 31.094 46.3192 31.0608 46.2875 31.0608C45.8757 30.9614 45.4321 30.8619 45.0203 30.7625C44.8302 30.7293 44.6718 30.663 44.4817 30.6299C44.1966 30.5636 43.9114 30.4973 43.5946 30.431C43.5313 30.431 43.4679 30.3978 43.4362 30.3978C43.1828 30.3978 42.9293 30.431 42.7075 30.4641H42.6442C41.9155 30.5636 41.2185 30.7293 40.4898 30.9945C40.4582 30.9945 40.4265 31.0277 40.3631 31.0277C40.2364 31.0608 40.1414 31.1271 40.0146 31.1602C39.8562 31.2265 39.7295 31.2928 39.5711 31.3591C38.5256 31.8232 37.5435 32.4862 36.5931 33.3149C36.2129 33.6464 35.8644 34.0111 35.5159 34.3757C35.009 34.9393 34.5654 35.5359 34.1536 36.1658C34.1219 36.1989 34.1219 36.2321 34.0902 36.2652C33.8685 36.5967 33.6784 36.9614 33.52 37.2928C33.4566 37.4254 33.3932 37.558 33.3299 37.6575V37.6906C33.1398 38.1216 32.9814 38.5194 32.8547 38.9503C32.8547 38.9835 32.8547 39.0166 32.823 39.0166C32.7913 39.0829 32.7913 39.1492 32.7596 39.2155C32.6963 39.4144 32.6329 39.6133 32.6012 39.8122C32.5378 40.0111 32.5062 40.21 32.4745 40.442C32.4745 40.4752 32.4428 40.5415 32.4428 40.5746C32.4111 40.7072 32.4111 40.8398 32.3794 40.9393C32.3161 41.4033 32.2844 41.8674 32.2527 42.3315V42.663C32.4428 43.4254 32.7279 44.1216 33.0764 44.7183C34.3754 47.0718 36.5297 48.4973 38.1138 49.2597C38.7157 49.5249 39.3493 49.7901 40.0146 50.0221L40.0463 50.0553L40.078 50.0221C40.173 49.9558 40.2364 49.8895 40.3314 49.8232C40.3631 49.7901 40.3948 49.7901 40.4265 49.7569L40.7116 49.558C40.7433 49.5249 40.775 49.5249 40.8067 49.4917L41.0918 49.2928C41.1235 49.2597 41.1552 49.2597 41.1868 49.2265C41.2819 49.1602 41.3769 49.0939 41.5036 49.0276C41.5353 48.9945 41.567 48.9945 41.5987 48.9614C41.6937 48.8951 41.8205 48.8288 41.9155 48.7625C41.9472 48.7293 41.9789 48.7293 42.0106 48.6962C42.1056 48.6299 42.2323 48.5636 42.3274 48.4973C42.359 48.4641 42.4224 48.4641 42.4541 48.431C42.5491 48.3647 42.6759 48.2984 42.7709 48.2321C42.8026 48.1989 42.8659 48.1658 42.8976 48.1658C42.9927 48.0995 43.1194 48.0332 43.2461 47.9669C43.3095 47.9337 43.3412 47.9006 43.4045 47.9006C43.5313 47.8343 43.6263 47.768 43.753 47.7348C43.8164 47.7017 43.8481 47.6685 43.9114 47.6685C44.0382 47.6022 44.1332 47.5691 44.2599 47.5028L44.45 47.4033C44.5767 47.337 44.6718 47.3039 44.7985 47.2376C44.8619 47.2044 44.9252 47.1713 45.0203 47.1381C45.147 47.105 45.242 47.0387 45.3688 47.0056C45.4321 46.9724 45.5272 46.9393 45.5905 46.9061C45.7173 46.873 45.8123 46.8067 45.939 46.7735C46.0341 46.7404 46.0974 46.7072 46.1925 46.6741C46.3192 46.6409 46.4142 46.5746 46.541 46.5415L46.8261 46.442C46.9211 46.4089 47.0479 46.3757 47.1429 46.3094C47.238 46.2763 47.3647 46.2431 47.4597 46.21C47.5548 46.1768 47.6815 46.1437 47.7765 46.1105C47.9033 46.0774 48.03 46.0442 48.125 46.0111C48.2201 45.9779 48.3151 45.9448 48.4418 45.9116C48.5686 45.8785 48.6953 45.8453 48.8537 45.779C48.9171 45.7459 48.9804 45.7459 49.0438 45.7127C49.5507 44.3536 51.1031 40.9724 53.7326 40.6078C54.0178 40.5746 54.2712 40.5415 54.5247 40.5415H54.7147C54.6831 40.3426 54.6514 40.1437 54.6514 39.9116C54.5563 38.4531 54.9999 37.2265 55.6018 37.1934C56.077 37.1602 56.4572 37.8895 56.5206 38.1216C56.7107 38.5525 56.8374 39.116 56.8691 39.7459C56.9008 40.3094 56.8374 40.8398 56.7423 41.3039C56.8057 41.3702 56.8374 41.4365 56.9008 41.4696C57.5027 42.2652 57.5977 43.326 57.5661 44.1216C57.7878 44.0884 58.0413 44.0884 58.2947 44.0553C58.3581 44.0553 58.4215 44.0553 58.4848 44.0221H58.6115C58.8967 43.989 59.2135 43.9558 59.5303 43.9558C60.2273 43.8895 60.9243 43.8564 61.6529 43.8232C61.2411 43.5912 60.9876 43.4586 60.9876 43.4586ZM67.609 63.8785C66.4685 64.9393 65.2646 65.8011 64.0607 66.4973C63.4588 66.8288 62.8568 67.1271 62.2866 67.3923C60.9876 67.989 59.7521 68.3868 58.6432 68.6851C56.2038 69.3149 54.5247 69.3149 54.5247 69.3149C55.8553 70.0774 57.5344 70.0774 58.6749 69.9779C59.4669 69.9116 60.0055 69.7459 60.0055 69.7459C59.9738 70.2431 59.9105 70.7072 59.8471 71.1713C59.7521 71.6685 59.6253 72.0995 59.4669 72.4973V72.5304C59.2768 73.0277 59.0234 73.4586 58.7699 73.8564C58.7383 73.8895 58.7066 73.9558 58.6749 73.989L58.7699 73.9227C59.1818 73.6906 59.5937 73.4254 60.0055 73.1602C60.3223 72.9613 60.6391 72.7293 60.9243 72.5304C61.4312 72.1658 61.9381 71.768 62.445 71.337C62.4767 71.3039 62.5083 71.2707 62.54 71.2707C63.0152 70.8398 63.4905 70.3757 63.9023 69.9116C64.4726 69.2818 64.9795 68.652 65.423 68.0221L65.4547 67.989C65.5814 67.8232 65.6765 67.6906 65.7715 67.5249L65.8032 67.4917C65.8349 67.4254 65.8666 67.3923 65.8982 67.326C66.0566 67.0939 66.1834 66.8951 66.3418 66.663C66.3735 66.5967 66.4051 66.5636 66.4368 66.4973C66.5002 66.3647 66.5635 66.2652 66.6586 66.1326C66.7219 66.0332 66.7536 65.9669 66.817 65.8674C66.8804 65.768 66.9437 65.6685 66.9754 65.5691C67.0704 65.4033 67.1655 65.2044 67.2605 65.0387L67.3556 64.8398L67.5457 64.442L67.6407 64.2431L67.6724 64.1768C67.7358 64.0111 67.8308 63.8453 67.8942 63.6796C67.7674 63.7127 67.7041 63.779 67.609 63.8785ZM38.7157 50.5194C38.3989 50.6188 38.0187 50.7846 37.6385 50.9503C36.6247 51.3812 35.4842 52.0111 34.4704 52.873C34.3437 52.9724 34.217 53.105 34.0902 53.2044C33.8685 53.4033 33.6784 53.6022 33.4883 53.8343L33.4249 53.9006L33.3299 54C33.2665 54.0995 33.1715 54.1658 33.1081 54.2652L33.0131 54.3647C32.918 54.4973 32.823 54.6299 32.7596 54.7625C32.6646 54.8951 32.6012 55.0276 32.5062 55.1602C31.9042 56.2542 31.5557 57.5801 31.6508 59.1713V59.105C31.6508 59.0718 31.6508 59.0387 31.6825 59.0056V58.9724C31.6825 58.9392 31.7141 58.9061 31.7141 58.8398V58.8067C31.7141 58.7735 31.7458 58.7072 31.7458 58.6409C31.7458 58.5746 31.7775 58.5415 31.8092 58.4752V58.442C31.8409 58.3757 31.8409 58.3094 31.8725 58.2431V58.21C31.9042 58.1437 31.9042 58.0774 31.9359 58.0111V57.9779C31.9676 57.9116 31.9993 57.8453 32.0309 57.7459L32.0626 57.7127C32.0943 57.6464 32.126 57.547 32.1894 57.4807C32.2527 57.3481 32.3161 57.2486 32.3794 57.116C32.4111 57.0829 32.4428 57.0166 32.4745 56.9834L32.5062 56.9503L32.6963 56.652C32.7596 56.5857 32.823 56.4862 32.8863 56.4199L32.9497 56.3536C33.0131 56.2873 33.0447 56.221 33.1081 56.1879L33.1715 56.1216C33.2348 56.0553 33.3299 55.989 33.3932 55.8895C33.3932 55.8895 32.0309 59.1381 32.6329 61.6906V61.6575V61.5912V61.4917V61.3591V61.1934C32.6329 61.1271 32.6329 61.0608 32.6646 60.9945C32.6646 60.9282 32.6646 60.8619 32.6963 60.7956V60.7625C32.6963 60.6962 32.7279 60.5967 32.7279 60.5304V60.4641C32.7596 60.3647 32.7596 60.2984 32.7913 60.1989V60.1658C32.823 60.0663 32.8547 59.9669 32.8547 59.9006C32.8547 59.8674 32.8863 59.8343 32.8863 59.8011L32.918 59.7348C32.9497 59.6685 32.9814 59.5691 33.0131 59.5028C33.0447 59.4033 33.1081 59.3039 33.1715 59.2044C33.1715 59.1713 33.2032 59.1381 33.2032 59.1381L33.3932 58.8398C33.3932 58.8398 33.3299 59.6354 33.3299 60.5967C33.3299 60.7625 33.3299 60.8951 33.3616 61.0608C33.3616 61.1602 33.3616 61.2597 33.3932 61.3591C33.4566 60.3315 33.6467 59.3702 33.9001 58.4752C33.9635 58.2431 34.0585 57.9779 34.1219 57.7459C34.1219 57.7127 34.1536 57.6796 34.1536 57.6464C34.2486 57.4144 34.312 57.2155 34.407 56.9834C34.4387 56.9503 34.4387 56.9172 34.4704 56.8509C34.5654 56.652 34.6605 56.4199 34.7555 56.221C34.7872 56.1879 34.7872 56.1547 34.7872 56.1216C35.009 55.6906 35.2308 55.2928 35.4525 54.9282C35.4842 54.8951 35.4842 54.8619 35.5159 54.8288C35.6109 54.6962 35.706 54.5636 35.801 54.3978C35.8327 54.3647 35.8327 54.3315 35.8644 54.2984C35.8961 54.2652 35.8961 54.2321 35.9277 54.1989C36.0545 54.0332 36.1495 53.8674 36.2762 53.7017C36.3079 53.6685 36.3079 53.6354 36.3396 53.6354C36.4663 53.4696 36.5931 53.3039 36.7198 53.1713C36.8782 52.9724 37.0366 52.8067 37.195 52.6078C37.3217 52.4752 37.4168 52.3426 37.5435 52.2431L37.6702 52.1105C37.9237 51.8453 38.1771 51.5801 38.4306 51.3481C39.1276 50.6851 39.6978 50.2542 39.8879 50.1216C39.7612 50.1547 39.6345 50.1879 39.476 50.221C39.286 50.3205 39.0325 50.4199 38.7157 50.5194Z" fill="#F2D2AC"/>
<path d="M56.9641 43.326C56.9641 43.326 56.9641 43.2597 56.9324 43.1271C56.8057 42.663 56.3622 41.5359 54.6197 41.7017C52.7822 41.9006 52.1486 43.4586 51.9901 43.989C51.9585 44.0884 51.9585 44.1547 51.9585 44.1547L52.0218 44.1879C52.2436 43.989 52.6871 43.989 53.099 44.2873C53.2891 44.4199 53.4158 44.5525 53.5425 44.7182C53.7009 44.9834 53.7326 45.2486 53.6376 45.4475L53.5425 45.547C53.5425 45.547 53.6059 45.5801 53.7326 45.6133C54.2395 45.779 55.6652 46.0774 56.4255 45.0497C56.4572 44.9834 56.4889 44.9503 56.5206 44.884C56.3622 44.8177 56.2988 44.5857 56.2988 44.2873C56.2988 44.1547 56.3305 44.0221 56.3622 43.8564C56.4572 43.4586 56.7423 43.2265 56.9641 43.326ZM47.8082 57.5138C46.6043 57.779 45.5588 57.9779 44.7668 58.1105C44.7985 58.1105 44.8618 58.1105 44.8935 58.1437C46.2558 58.3094 48.4102 58.5414 51.008 58.3757C55.7602 58.0774 62.0014 56.5193 67.6724 51.1492V51.116C67.7041 50.6519 67.6407 49.8564 67.1021 49.2265C67.0071 49.1271 66.912 49.0276 66.7853 48.9282C66.7536 48.9282 66.7536 48.895 66.7219 48.895C66.5635 48.7956 66.4368 48.7293 66.3101 48.6298L66.025 48.431V48.3978C65.6765 48.9282 65.2646 49.4254 64.8211 49.8895C64.6627 50.0553 64.5043 50.221 64.3142 50.3868C62.7618 51.8453 60.7342 53.105 58.5482 54.0995C54.9365 55.7569 50.8813 56.8508 47.8082 57.5138ZM17.7743 48.8619C17.711 48.895 17.6793 48.9613 17.6159 48.9945L17.5526 49.0608C17.4892 49.1271 17.4258 49.1934 17.3942 49.2597L17.3625 49.2928L17.1724 49.5912L17.1407 49.6243C17.1407 49.6575 17.109 49.6575 17.109 49.6906L17.014 49.8895V49.9558C16.9823 50.0553 16.9189 50.1547 16.8873 50.2542C16.7922 50.5194 16.6972 50.7845 16.6338 51.0166C16.6021 51.0829 16.6021 51.1823 16.5704 51.2155C16.5388 51.3481 16.5071 51.4807 16.5071 51.5138V51.547V51.5138C16.5071 51.4144 16.5071 51.3481 16.5388 51.2486C16.5388 51.0829 16.5704 50.884 16.5704 50.7182C16.5704 50.5856 16.6021 50.4199 16.6338 50.2873C16.6338 50.2542 16.6338 50.1879 16.6655 50.1547C16.6655 50.0884 16.6972 50.0221 16.6972 49.9558C16.6972 49.8895 16.7289 49.8232 16.7289 49.7569V49.6575C16.7289 49.5912 16.7605 49.4917 16.7605 49.4254V49.2597V49.1934C16.7605 49.1602 16.7605 49.1271 16.7922 49.0939C16.8239 48.9945 16.8556 48.8619 16.8556 48.7624V48.7293C16.8873 48.663 16.8873 48.5636 16.9189 48.4973V48.4641C16.9506 48.2984 17.014 48.1326 17.0457 47.9669V47.9006C17.0457 47.8674 17.0457 47.8343 17.0773 47.8011C17.1407 47.5359 17.2358 47.2707 17.2991 47.0387V47.0055C17.3625 46.8066 17.4575 46.5746 17.5209 46.3757V46.3426C17.5526 46.2431 17.5842 46.1768 17.6159 46.0774C17.6793 45.9448 17.711 45.8122 17.7743 45.6796C17.7743 45.6464 17.806 45.5801 17.8694 45.4475C17.9011 45.4144 17.9011 45.3481 17.9327 45.3149C17.9644 45.2486 17.9961 45.1823 18.0278 45.0829L18.0595 45.0166C18.0278 44.9834 17.9644 44.9834 17.9327 44.9503H17.9011L17.8377 44.9171C17.5526 44.7845 17.2358 44.6519 16.9189 44.5525H16.8556C16.6338 44.4862 16.4437 44.4531 16.222 44.4199C16.0952 44.4199 15.9685 44.3868 15.8418 44.3868H15.525C15.3666 44.3868 15.2082 44.4199 15.0497 44.4199C14.9864 44.4199 14.9547 44.4199 14.8913 44.4531C14.828 44.4531 14.7329 44.4862 14.6696 44.4862C14.6379 44.4862 14.6062 44.4862 14.5745 44.5194C14.5112 44.5194 14.4795 44.5525 14.4161 44.5525C14.3211 44.5856 14.1944 44.6188 14.0993 44.6519C14.0676 44.6519 14.0043 44.6851 13.9726 44.6851C13.8459 44.7514 13.6874 44.7845 13.5607 44.8508C13.4974 44.884 13.4657 44.9171 13.4023 44.9171L13.2122 45.0166L13.1489 45.0497C13.0855 45.0829 13.0221 45.116 12.9588 45.1823C12.8954 45.2155 12.8321 45.2486 12.7687 45.3149C12.7053 45.3481 12.642 45.4144 12.5786 45.4475C12.5469 45.4807 12.4836 45.5138 12.4519 45.547C12.3568 45.6464 12.2301 45.7459 12.1351 45.8453L11.9767 46.0111C11.8816 46.1105 11.8183 46.21 11.7232 46.3094L11.6915 46.3426C11.6598 46.4089 11.5965 46.442 11.5648 46.5083L11.4698 46.6078C11.3114 46.8398 11.1529 47.105 11.0262 47.3702C10.9945 47.4033 10.9945 47.4365 10.9629 47.4696C10.8995 47.6022 10.8678 47.7348 10.8045 47.8674C10.7728 47.9337 10.7728 47.9669 10.7411 48.0332C10.7411 48.0663 10.7728 48.0995 10.7728 48.1326C10.8045 48.2652 10.8361 48.3647 10.8678 48.4973V48.5635C10.8995 48.663 10.9629 48.7956 10.9945 48.895C11.1213 49.2265 11.248 49.5249 11.4064 49.7901C11.4381 49.8232 11.4381 49.8564 11.4698 49.8895V49.9227L11.5014 49.9558C11.5965 50.1547 11.6915 50.3205 11.7866 50.4531C11.945 50.6851 12.0717 50.8508 12.1667 50.9834L12.2301 51.0497C12.2301 51.0829 12.2618 51.0829 12.2618 51.0829L12.3252 51.1492C12.3252 51.0829 12.2935 51.0166 12.2935 50.9834C12.1984 50.5525 12.1667 50.1547 12.1667 49.7238V49.6575C12.1667 49.3923 12.1667 49.1271 12.1984 48.895L12.2935 49.1934C12.3252 49.326 12.3885 49.4586 12.4202 49.5912V49.6575C12.6103 50.221 12.8321 50.6851 13.0538 51.0497C13.3073 51.5138 13.529 51.8122 13.6874 52.0111C13.7191 52.0442 13.7508 52.0774 13.7508 52.1105L13.8142 52.1768C13.7191 51.7127 13.6558 51.2818 13.6558 50.8508V50.4199C13.6558 50.221 13.6558 50.0553 13.6874 49.8895C13.7508 50.1879 13.8459 50.4862 13.9409 50.7514V50.7845C14.2894 51.7459 14.7013 52.442 14.9864 52.8729L15.0181 52.9061C15.0814 52.9724 15.1131 53.0387 15.1448 53.105C15.1765 53.1381 15.2082 53.1713 15.2082 53.2044L15.2715 53.2707L15.3032 53.3039V53.2376C15.3032 53.1713 15.2715 53.105 15.2715 53.0387C15.2398 52.8066 15.2082 52.5746 15.1765 52.3757C15.1765 52.2431 15.1448 52.0774 15.1448 51.9448V51.547V51.4807V51.2155C15.1448 51.0497 15.1765 50.8508 15.1765 50.6851C15.2082 50.7845 15.2398 50.9171 15.2715 51.0166C15.3032 51.0829 15.3349 51.1823 15.3666 51.2486V51.2818L15.3982 51.3149C15.4299 51.4144 15.4616 51.5138 15.4933 51.5801C15.5566 51.7459 15.62 51.9116 15.7151 52.0442C15.8101 52.2431 15.8735 52.4089 15.9685 52.5414C16.0319 52.6409 16.0635 52.7072 16.0952 52.7735C16.1586 52.8729 16.222 52.9724 16.2536 53.0387C16.317 53.105 16.3487 53.1713 16.3804 53.2376L16.412 53.2707C16.4437 53.337 16.5071 53.3702 16.5388 53.4365C16.5704 53.4696 16.6021 53.5028 16.6021 53.5359C16.6655 53.6022 16.6972 53.6685 16.7289 53.6685L16.7605 53.7017V53.6022C16.7922 53.337 16.8239 53.0387 16.8556 52.7735V52.674C16.8873 52.3426 16.9506 52.0442 17.014 51.7459C17.014 51.7127 17.014 51.6796 17.0457 51.6133V51.5801C17.0457 51.547 17.0457 51.5138 17.0773 51.4807C17.0773 51.4144 17.109 51.3812 17.109 51.3149C17.1407 51.0829 17.2041 50.8508 17.2358 50.6188C17.2674 50.4199 17.2991 50.221 17.3308 50.0553V49.989C17.3308 49.9558 17.3308 49.9227 17.3625 49.9227V49.8564C17.3625 49.8232 17.3942 49.7569 17.3942 49.7238C17.3942 49.6906 17.3942 49.6575 17.4258 49.6243C17.4258 49.558 17.4575 49.4917 17.4575 49.4586C17.4575 49.4254 17.4892 49.3591 17.4892 49.326C17.4892 49.2597 17.5209 49.1934 17.5209 49.1602C17.5209 49.1271 17.5209 49.0939 17.5526 49.0608C17.5526 49.0276 17.5526 48.9945 17.5842 48.9945C17.5842 48.9282 17.6159 48.895 17.6159 48.8619V48.7624L17.7743 48.8619ZM56.1721 62.7182C56.6156 62.5525 56.9958 62.4199 57.3126 62.2873C57.9145 62.0221 58.2314 61.8232 58.2314 61.7569C58.1997 61.6906 57.8512 61.7238 57.2176 61.8895C56.9007 61.9558 56.5206 62.0221 56.0453 62.1547C55.8236 62.221 55.5701 62.2542 55.3167 62.2873C55.0632 62.3204 54.7781 62.3867 54.493 62.4199C53.9227 62.5193 53.2891 62.5856 52.5921 62.6519L51.5466 62.7514C51.1981 62.7845 50.8179 62.7845 50.4378 62.8177C48.9171 62.8508 47.2379 62.7845 45.5272 62.453C44.6401 62.2873 43.4045 61.8564 42.5491 61.3591L42.5174 61.326C43.0243 59.4365 44.9252 59.1713 44.9252 59.1713L44.8619 59.1381H44.7668C44.4817 59.105 44.2599 59.0718 44.0381 59.0387C43.8797 59.0055 43.753 59.0055 43.658 58.9724C43.5629 58.9724 43.4679 58.9392 43.4362 58.9392C42.2957 58.8729 41.662 59.8674 41.4719 60.2983L41.3769 60.4972C41.2185 60.895 41.0918 61.326 41.0601 61.8232C40.9967 62.7182 41.2185 63.6796 41.8838 64.5083C42.3273 65.0718 43.0877 65.5691 44.0698 65.9669C43.2144 65.4033 42.4541 64.3094 42.4224 62.6188C43.4045 63.0497 44.5134 63.3149 45.3687 63.4807C47.1746 63.8453 48.9487 63.8785 50.5011 63.779C50.8813 63.7459 51.2932 63.7127 51.6416 63.6796C52.0218 63.6133 52.3703 63.5801 52.7188 63.547C53.4158 63.4144 54.0177 63.3149 54.6197 63.1823C54.9048 63.116 55.19 63.0497 55.4434 62.9503C55.7285 62.884 55.9503 62.8177 56.1721 62.7182Z" fill="#F2D2AC"/>
<path d="M54.683 40.5747C55.6335 40.6078 56.2671 40.9062 56.7106 41.3702C56.8057 40.9393 56.869 40.4089 56.8374 39.8122C56.8057 39.1824 56.679 38.6189 56.4889 38.1879C56.4255 37.9227 56.0453 37.2266 55.5701 37.2598C54.9682 37.2929 54.5246 38.5194 54.6197 39.978C54.6197 40.1769 54.6513 40.3758 54.683 40.5747ZM56.2671 44.3205C56.2671 44.5857 56.3621 44.8178 56.4889 44.9172C56.7106 45.0498 56.9958 44.7846 57.1225 44.3537C57.1225 44.3205 57.1542 44.2874 57.1542 44.2542C57.2492 43.8564 57.1542 43.4586 56.9324 43.3592C56.7106 43.2266 56.4255 43.4918 56.2988 43.9227C56.2988 44.0553 56.2671 44.1879 56.2671 44.3205ZM51.9584 45.0498C52.0535 45.2155 52.2119 45.3813 52.402 45.5139C52.8138 45.7791 53.2574 45.8122 53.5108 45.5802L53.6059 45.4807C53.7009 45.2818 53.6692 45.0167 53.5108 44.7515C53.4158 44.5857 53.2574 44.42 53.0673 44.3205C52.6554 44.0553 52.2119 44.0222 51.9901 44.2211C51.9584 44.2542 51.9268 44.2874 51.8951 44.3537C51.8 44.5194 51.8317 44.7846 51.9584 45.0498ZM67.704 51.1161C67.6724 51.1161 67.6724 51.1161 67.704 51.1161V51.1161ZM67.1971 60.2984C66.5952 60.8951 65.9299 61.4586 65.1695 61.989C61.9064 64.3095 57.3443 66.1327 54.1128 66.5636C51.6733 66.9614 49.2972 67.0277 47.2379 66.7625C46.034 66.5968 44.9886 66.3316 44.0698 65.9669C43.0877 65.5691 42.3273 65.0719 41.8838 64.5084C41.2185 63.6796 41.0284 62.6852 41.0601 61.8233C41.0917 61.3592 41.1868 60.8951 41.3769 60.4973L41.4719 60.2984C41.6937 59.8675 42.2956 58.8399 43.4362 58.9393C43.4678 58.9393 43.5629 58.9393 43.6579 58.9725C43.753 58.9725 43.9114 59.0056 44.0381 59.0388C44.2599 59.0719 44.4816 59.1051 44.7668 59.1382H44.8618C47.9983 59.536 51.008 59.5028 53.8593 59.0388C58.0096 58.3758 61.843 56.8178 65.2646 54.3979C65.4547 54.2653 65.6131 54.1327 65.8032 54.0001L67.6724 51.083C62.0014 56.4863 55.7602 58.0443 51.008 58.3426C48.4101 58.5084 46.2558 58.3095 44.8935 58.1106C44.8301 58.1106 44.7985 58.1106 44.7668 58.0774C44.3549 58.0111 44.0381 57.978 43.7847 57.9448C43.6579 57.9448 43.5629 57.9117 43.4995 57.9117C43.151 57.8785 42.8025 57.9448 42.4857 58.0443C41.8521 58.2432 41.2818 58.7073 40.87 59.3039C40.3631 60.0332 40.0463 61.0277 40.0463 62.0222C40.0463 62.8509 40.2364 63.7128 40.6482 64.5084C40.6799 64.5415 40.6799 64.5747 40.7116 64.6078C40.7749 64.7073 40.8066 64.7736 40.87 64.873C40.9333 64.9725 41.0284 65.1051 41.1234 65.2045C42.1056 66.4973 44.2599 67.4255 47.1112 67.8233C49.0438 68.0885 51.2931 68.0553 53.7326 67.6907C60.9559 66.3316 64.3775 63.8785 65.9616 62.1879C66.0883 62.0553 66.1833 61.9559 66.2784 61.8233C66.8486 61.1272 67.1021 60.5968 67.1971 60.3979V60.3647C67.2288 60.2984 67.2288 60.2653 67.2288 60.2653L67.1971 60.2984Z" fill="#664F44"/>
<path d="M44.2282 34.1105C44.0064 33.9779 43.7529 33.8785 43.4995 33.8122C43.3411 33.779 43.1827 33.7459 42.9926 33.7127C42.9292 33.7127 42.8659 33.7127 42.8025 33.6796C41.9471 33.6133 41.2184 33.7459 41.2184 33.7459C41.06 33.779 40.9016 33.8122 40.7749 33.8785C39.6344 34.2431 38.8423 34.873 38.2721 35.6022C37.8285 36.1989 37.5117 36.8288 37.3533 37.4586C37.3216 37.5249 37.3216 37.558 37.3216 37.6243C37.2899 37.7901 37.2266 37.9558 37.1949 38.0884C37.0999 38.6188 37.0365 39.0829 37.0365 39.4807C37.0365 40.0111 37.0682 40.3426 37.0682 40.3426C37.2583 39.8785 37.48 39.4807 37.7018 39.0829C38.2404 38.1216 38.8107 37.326 39.4126 36.6962C40.5531 35.4696 41.7253 34.8067 42.6124 34.4752C43.5628 34.1437 44.2282 34.1105 44.2282 34.1105ZM57.9461 32.4199L57.9145 32.3536C57.7877 32.1879 57.6293 32.0221 57.4392 31.8895C56.9957 31.5912 56.3938 31.4254 55.57 31.5912C55.57 31.5912 54.5879 31.8232 54.0177 32.5194C54.0177 32.5194 55.7285 31.7569 57.566 33.116C57.7244 33.2486 57.9145 33.3812 58.0729 33.547C58.2313 33.7127 58.4214 33.8785 58.5798 34.1105C58.5798 34.1105 58.5164 33.2818 58.0412 32.5525C58.0095 32.4862 57.9778 32.4531 57.9461 32.4199Z" fill="#E9B784"/>
<path d="M44.45 45.6133C45.1153 45.4144 45.8123 45.2155 46.6043 45.0166C46.731 44.3868 46.7627 43.6243 46.6677 42.7956C46.4459 40.873 45.6222 39.3813 44.7985 39.4807C43.9747 39.5802 43.4995 41.2376 43.7213 43.1603C43.848 44.1547 44.1015 45.0166 44.45 45.6133Z" fill="#664F44"/>
<path d="M40.6799 2.28723L38.9691 2.68502L39.3176 5.93364L34.7872 3.51375L32.918 4.11044L32.9496 4.14358L38.4622 10.7071L38.5256 10.674L38.5889 10.6408C38.7473 10.5414 38.9374 10.4088 39.0958 10.3093C39.1592 10.2762 39.2225 10.243 39.2859 10.1767C39.5394 10.011 39.7928 9.84524 40.0463 9.71265L37.7018 6.89497L41.4719 8.81762C41.5986 8.75132 41.6937 8.68502 41.8204 8.61872L41.4719 5.80104L43.1827 7.88944H43.2144C43.3728 7.82314 43.4995 7.7237 43.6579 7.6574L43.7213 7.62425L43.7846 7.5911C43.8163 7.5911 43.848 7.55795 43.848 7.55795L44.0381 7.4585C44.0381 7.4585 44.0698 7.4585 44.0698 7.42535C44.2599 7.32591 44.4816 7.22646 44.6717 7.12701L40.6799 2.28723Z" fill="#FFD250"/>
<path d="M39.0008 2.78449V2.68504V2.78449ZM39.0008 2.68504L39.2542 2.61874C38.8424 2.41985 38.3355 2.28725 37.7652 2.1878C36.6247 2.02206 35.1674 2.1878 33.5199 2.61874C31.8725 3.04968 30.0033 3.81211 28.0391 4.83974C24.0789 6.89499 19.7069 10.0442 15.4616 14.0884C13.9726 15.4806 12.6103 16.9392 11.343 18.3646L16.4754 24.9944C17.8694 23.4033 19.3584 21.8121 21.0058 20.2541C23.1918 18.1657 25.4095 16.3094 27.5955 14.7182C29.7182 13.1602 31.8408 11.8342 33.8367 10.7734L32.9497 6.53035L32.9813 4.14361L32.9497 4.11046L34.8189 3.51377L38.4622 5.46957L38.3672 4.14361L39.0008 2.68504Z" fill="#4D9ED7"/>
<path d="M39.0008 2.68506L38.3672 4.14362L38.4623 5.50274L39.3493 5.96683L39.0008 2.68506ZM37.7019 6.895L41.5037 8.85081L40.0463 9.71268L37.7019 6.895ZM41.5037 5.80108L41.8521 8.61876L43.2144 7.88948L41.5037 5.80108Z" fill="#132134"/>
<path d="M55.8235 4.77349H56.5205C57.1541 4.77349 57.756 4.87294 58.3263 5.00554C58.358 5.00554 58.3897 5.00554 58.4213 5.03869H58.453L58.5164 5.07184H58.5798C58.5164 5.03869 58.453 4.97239 58.3897 4.93924C57.756 4.67405 57.0907 4.5083 56.3937 4.40885C52.9722 3.94477 49.0437 5.27073 46.826 6.19891C46.6993 6.26521 46.5725 6.29836 46.4458 6.36466C46.2557 6.4641 46.0656 6.5304 45.8756 6.62985C45.5587 6.76244 45.2419 6.92819 44.8934 7.09394C44.8301 7.12709 44.7984 7.12709 44.735 7.16024C44.5449 7.25968 44.3232 7.35913 44.1331 7.45858C44.1331 7.45858 44.1014 7.45858 44.1014 7.49173L43.9113 7.59117C43.8796 7.59117 43.848 7.62432 43.848 7.62432H43.7212L43.6895 7.65747C43.5311 7.72377 43.4044 7.79007 43.246 7.88952H43.2143C43.1826 7.92267 43.151 7.92267 43.1193 7.95582H43.0876C43.0559 7.95582 43.0242 7.98896 43.0242 7.98896C42.8025 8.12156 42.5807 8.22101 42.3589 8.35361C42.2005 8.45305 42.0421 8.51935 41.8837 8.6188H41.852C41.7253 8.6851 41.6303 8.7514 41.5035 8.81769C41.1234 9.01659 40.7749 9.24863 40.3947 9.48068C40.363 9.51383 40.3313 9.51383 40.268 9.54698C40.2363 9.58012 40.2046 9.58012 40.1729 9.61327C40.1412 9.64642 40.1096 9.64642 40.0779 9.67957L40.0462 9.71272C39.7928 9.87847 39.5393 10.0111 39.2859 10.1768C39.2225 10.21 39.1591 10.2431 39.0958 10.3094C38.9374 10.4089 38.7473 10.5415 38.5889 10.6409L38.5255 10.674L38.4621 10.7072L37.0365 11.7017C36.2444 12.2652 35.4841 12.8287 34.7237 13.4254C34.6287 13.4917 34.5337 13.5912 34.4386 13.6575C32.4427 15.2155 30.5418 16.9061 28.7043 18.6299C26.7717 20.4862 24.9025 22.3757 23.1601 24.2984C22.2096 25.2928 21.3859 26.1879 20.7523 26.9171C19.4217 28.4089 18.693 29.337 18.7247 29.3702C18.7247 29.3702 18.8514 29.2707 19.0732 29.0387C18.9148 29.2376 18.7247 29.4696 18.5663 29.6685C21.481 26.4199 24.6808 23.105 28.134 19.989C30.225 18.0995 32.411 16.2763 34.6604 14.5857C35.6425 13.8564 36.6563 13.1271 37.6701 12.431C37.9869 12.1989 38.3354 12 38.6522 11.768C38.8106 11.6685 38.969 11.5691 39.1591 11.4696C39.2542 11.4033 39.3492 11.337 39.4443 11.3039C39.6343 11.2044 39.7927 11.0718 39.9828 10.9724C40.1412 10.8729 40.3313 10.7735 40.4897 10.6409C40.5848 10.5746 40.6798 10.5415 40.7749 10.4752L41.4402 10.0774C41.5669 10.0111 41.6936 9.91162 41.8204 9.84532C42.2322 9.61327 42.6441 9.38123 43.0876 9.14919C43.1193 9.11604 43.151 9.11604 43.1826 9.08289L43.3727 8.98344C43.4678 8.95029 43.5311 8.88399 43.6262 8.85084C43.6579 8.81769 43.6896 8.81769 43.7212 8.78454L43.9113 8.6851C43.9113 8.6851 43.943 8.6851 43.943 8.65195H43.9747C44.1648 8.5525 44.3549 8.45305 44.5133 8.38675C44.5449 8.38675 44.5766 8.35361 44.6083 8.32046L44.7984 8.22101C45.0202 8.12156 45.2103 8.02211 45.432 7.92267C45.4954 7.88952 45.5587 7.85637 45.5904 7.82322C45.6221 7.82322 45.6538 7.79007 45.6855 7.79007C45.7488 7.75692 45.8122 7.72377 45.8756 7.72377C46.129 7.62432 46.3508 7.49173 46.6042 7.39228C46.826 7.29283 47.0161 7.19338 47.2379 7.09394C48.4417 6.56355 49.5506 6.13261 50.5961 5.76797C52.5603 5.20443 54.3028 4.83979 55.8235 4.77349Z" fill="white"/>
</g>
<defs>
<clipPath id="clip0">
<rect width="71" height="84" fill="white"/>
</clipPath>
</defs>
</svg>
