<svg width="32" height="30" viewBox="0 0 32 30" fill="none" xmlns="http://www.w3.org/2000/svg">
<path d="M28.0374 10.8751C28.444 12.1732 28.6667 13.554 28.6667 14.9871C28.6667 22.47 22.6854 28.5579 15.3334 28.5579C7.98135 28.5579 2.00002 22.47 2.00002 14.9871C2.00002 7.50415 7.98135 1.41629 15.3334 1.41629C18.2787 1.41629 20.9954 2.4056 23.204 4.05784L24.2227 3.12485C21.7547 1.2039 18.6734 0.0592041 15.3334 0.0592041C7.24602 0.0592041 0.666687 6.75572 0.666687 14.9871C0.666687 23.2185 7.24602 29.915 15.3334 29.915C23.4207 29.915 30 23.2185 30 14.9871C30 13.1537 29.672 11.3969 29.0747 9.77319L28.0374 10.8751Z" fill="white"/>
<path d="M29.3333 2.09485L16 14.3086L10 9.55879L8 11.5944L16 19.7369L31.3333 3.45193L29.3333 2.09485Z" fill="white"/>
</svg>
