<svg width="74" height="72" viewBox="0 0 74 72" fill="none" xmlns="http://www.w3.org/2000/svg">
<path d="M34.8549 42.75C46.8908 42.75 56.6479 33.1801 56.6479 21.375C56.6479 9.56991 46.8908 0 34.8549 0C22.8189 0 13.0619 9.56991 13.0619 21.375C13.0619 33.1801 22.8189 42.75 34.8549 42.75Z" fill="#036C70"/>
<path d="M55.2141 58.5C65.508 58.5 73.8528 50.3152 73.8528 40.2188C73.8528 30.1223 65.508 21.9375 55.2141 21.9375C44.9202 21.9375 36.5753 30.1223 36.5753 40.2188C36.5753 50.3152 44.9202 58.5 55.2141 58.5Z" fill="#1A9BA1"/>
<path d="M37.1489 72C45.384 72 52.0599 65.4522 52.0599 57.375C52.0599 49.2978 45.384 42.75 37.1489 42.75C28.9138 42.75 22.2379 49.2978 22.2379 57.375C22.2379 65.4522 28.9138 72 37.1489 72Z" fill="#37C6D0"/>
<path opacity="0.1" d="M38.679 15.75H13.8258C12.9467 18.9211 12.8245 22.2482 13.4686 25.4731C14.1127 28.6981 15.5058 31.7341 17.5397 34.3455C19.5736 36.9569 22.1937 39.0735 25.1966 40.5311C28.1995 41.9886 31.5044 42.7479 34.8549 42.75C35.4903 42.75 36.1189 42.7208 36.7428 42.669L36.7543 42.7545C32.8692 42.8554 29.1779 44.44 26.4664 47.1709C23.7549 49.9018 22.2377 53.5631 22.2379 57.375C22.2379 57.753 22.2524 58.128 22.2815 58.5H38.679C39.4892 58.4976 40.2656 58.1809 40.8386 57.6189C41.4115 57.057 41.7345 56.2955 41.7369 55.5007V18.7493C41.7345 17.9545 41.4115 17.193 40.8386 16.6311C40.2656 16.0691 39.4892 15.7524 38.679 15.75Z" fill="black"/>
<path opacity="0.2" d="M36.3849 18H13.3302C12.8344 21.0538 13.0196 24.1767 13.8731 27.1535C14.7266 30.1303 16.2282 32.8902 18.2742 35.2428C20.3203 37.5955 22.8621 39.485 25.7246 40.781C28.5871 42.077 31.7021 42.7488 34.8548 42.75C35.4903 42.75 36.1188 42.7208 36.7428 42.669L36.7543 42.7545C34.538 42.8136 32.363 43.3563 30.3873 44.3433C28.4117 45.3302 26.6851 46.7365 25.3331 48.4599C23.9811 50.1834 23.0376 52.1807 22.5712 54.3066C22.1048 56.4325 22.1273 58.6337 22.637 60.75H36.3849C37.1952 60.7476 37.9716 60.4309 38.5445 59.8689C39.1175 59.307 39.4404 58.5455 39.4428 57.7507V20.9993C39.4404 20.2045 39.1175 19.443 38.5445 18.8811C37.9716 18.3191 37.1952 18.0024 36.3849 18Z" fill="black"/>
<path opacity="0.2" d="M36.3849 18H13.3302C12.8344 21.0538 13.0196 24.1767 13.8731 27.1535C14.7266 30.1303 16.2282 32.8902 18.2742 35.2428C20.3203 37.5955 22.8621 39.485 25.7246 40.781C28.5871 42.077 31.7021 42.7488 34.8548 42.75C35.4903 42.75 36.1188 42.7208 36.7428 42.669L36.7543 42.7545C33.0669 42.8495 29.5464 44.2817 26.8729 46.7743C24.1994 49.2668 22.5627 52.6429 22.2791 56.25H36.3849C37.1952 56.2476 37.9716 55.9309 38.5445 55.3689C39.1175 54.807 39.4404 54.0455 39.4428 53.2507V20.9993C39.4404 20.2045 39.1175 19.443 38.5445 18.8811C37.9716 18.3191 37.1952 18.0024 36.3849 18Z" fill="black"/>
<path opacity="0.2" d="M34.0909 18H13.3302C12.8344 21.0538 13.0196 24.1767 13.8731 27.1535C14.7266 30.1303 16.2282 32.8902 18.2742 35.2428C20.3203 37.5955 22.8621 39.485 25.7246 40.781C28.5871 42.077 31.7021 42.7488 34.8548 42.75C35.4903 42.75 36.1188 42.7208 36.7428 42.669L36.7543 42.7545C33.0669 42.8495 29.5464 44.2817 26.8729 46.7743C24.1994 49.2668 22.5627 52.6429 22.2791 56.25H34.0909C34.9012 56.2476 35.6776 55.9309 36.2505 55.3689C36.8235 54.807 37.1464 54.0455 37.1488 53.2507V20.9993C37.1464 20.2045 36.8235 19.443 36.2505 18.8811C35.6776 18.3191 34.9012 18.0024 34.0909 18Z" fill="black"/>
<path d="M3.50273 18H34.0909C34.9019 18 35.6797 18.316 36.2532 18.8785C36.8267 19.4409 37.1488 20.2038 37.1488 20.9993V51.0007C37.1488 51.7962 36.8267 52.5591 36.2532 53.1215C35.6797 53.684 34.9019 54 34.0909 54H3.50273C2.69172 54 1.91393 53.684 1.34046 53.1215C0.766995 52.5591 0.444824 51.7962 0.444824 51.0007L0.444824 20.9993C0.444824 20.2038 0.766995 19.4409 1.34046 18.8785C1.91393 18.316 2.69172 18 3.50273 18Z" fill="#03787C"/>
<path d="M13.4518 35.6063C12.6791 35.1036 12.034 34.434 11.5662 33.6488C11.1105 32.8285 10.8834 31.905 10.9078 30.9713C10.8678 29.7075 11.303 28.4735 12.1305 27.504C12.9993 26.5329 14.1227 25.8139 15.3788 25.425C16.8106 24.9624 18.3103 24.7343 19.8177 24.75C21.7998 24.6785 23.7793 24.9504 25.6651 25.5533V29.6033C24.8455 29.1162 23.953 28.7586 23.0201 28.5435C22.0075 28.2992 20.9683 28.1768 19.9255 28.179C18.8266 28.14 17.7348 28.3664 16.746 28.8383C16.3728 28.9964 16.0549 29.2581 15.8311 29.591C15.6074 29.924 15.4877 30.3137 15.4866 30.7125C15.482 31.2063 15.6737 31.6825 16.0211 32.04C16.4338 32.4593 16.9213 32.8009 17.4595 33.048C18.062 33.342 18.9613 33.732 20.1572 34.218C20.29 34.2588 20.4196 34.3092 20.5449 34.3688C21.7246 34.8217 22.8628 35.3727 23.9469 36.0158C24.7686 36.5122 25.4581 37.1932 25.9587 38.0025C26.4743 38.9181 26.7257 39.9543 26.6859 40.9995C26.7446 42.2972 26.3397 43.5744 25.5412 44.6108C24.7443 45.563 23.6792 46.2642 22.4787 46.6268C21.0675 47.0613 19.5945 47.2717 18.1156 47.25C16.7919 47.2552 15.4702 47.1483 14.1653 46.9305C13.0606 46.7586 11.9819 46.4532 10.9537 46.0215V41.742C11.9374 42.4309 13.0369 42.9449 14.202 43.2608C15.3597 43.6154 16.5634 43.8048 17.776 43.8233C18.8991 43.8935 20.0203 43.66 21.0175 43.1483C21.3576 42.9567 21.6385 42.6783 21.8303 42.3428C22.0221 42.0073 22.1178 41.6271 22.1071 41.2425C22.1094 40.9719 22.0566 40.7035 21.9518 40.4532C21.8471 40.2028 21.6924 39.9755 21.4969 39.7845C21.0041 39.3112 20.4342 38.9219 19.8108 38.6325C19.0936 38.2785 18.0337 37.8135 16.6313 37.2375C15.5188 36.7988 14.4537 36.2523 13.4518 35.6063Z" fill="white"/>
</svg>
