<svg width="67" height="66" viewBox="0 0 67 66" fill="none" xmlns="http://www.w3.org/2000/svg">
<g clip-path="url(#clip0)">
<path d="M35.2524 -4.57764e-05H39.5669V6.90693C47.7022 6.95298 55.8449 6.82221 63.9723 6.945C65.7226 6.77616 67.0924 8.14957 66.9177 9.91469C67.0467 24.2505 66.8872 38.5937 66.9938 52.9375C66.9177 54.4877 67.146 56.2068 66.2632 57.5802C65.1522 58.3937 63.7063 58.2862 62.4047 58.3476C54.7947 58.3096 47.1848 58.3249 39.5669 58.3249V65.9993H34.8341C23.2365 63.8659 11.6158 61.9165 0.0109638 59.8598C0.00304943 41.9557 0.0109638 24.051 0.0109638 6.15422C11.7522 4.10608 23.4947 2.01863 35.2524 -4.57764e-05Z" fill="#D24625"/>
<path d="M39.5663 9.2093H64.6792V56.0233H39.5663V49.8837H57.8302V46.8139H39.5663V42.9767H57.8302V39.907H39.5742C39.5663 38.4028 39.5663 36.8986 39.5596 35.3944C42.5732 36.3381 46.005 36.3153 48.6989 34.4882C51.6138 32.7464 53.1358 29.4231 53.3866 26.1078C50.0462 26.0844 46.7051 26.0924 43.3719 26.0924C43.3646 22.7537 43.4097 19.4157 43.3037 16.085C42.0557 16.3306 40.8077 16.5915 39.5669 16.8598V9.2093H39.5663Z" fill="white"/>
<path d="M44.9012 14.4813C50.1904 14.7269 54.634 19.2161 54.9159 24.5348C51.5748 24.5735 48.2344 24.5581 44.8933 24.5581C44.8933 21.1967 44.886 17.8353 44.9012 14.4813Z" fill="#D24625"/>
<path d="M12.2162 20.2758C16.3487 20.4753 21.356 18.6255 24.7805 21.7493C28.0607 25.7633 27.1932 33.1455 22.3301 35.5485C20.6029 36.4381 18.6243 36.3159 16.7444 36.2539C16.7365 39.2549 16.7298 42.2553 16.7365 45.2563C15.2274 45.1241 13.718 44.9962 12.2082 44.8726C12.1401 36.6757 12.1254 28.4721 12.2162 20.2758Z" fill="white"/>
<path d="M16.7364 24.4279C18.2359 24.3585 20.0927 24.0829 21.1052 25.5023C21.9727 27.0065 21.927 28.9865 21.2038 30.5368C20.3363 32.1177 18.3729 31.9642 16.8582 32.1484C16.6981 29.5771 16.7139 27.0059 16.7364 24.4279Z" fill="#D24625"/>
</g>
<defs>
<clipPath id="clip0">
<rect width="67" height="66" fill="white"/>
</clipPath>
</defs>
</svg>
