<svg width="74" height="74" viewBox="0 0 74 74" fill="none" xmlns="http://www.w3.org/2000/svg">
<g opacity="0.5" clip-path="url(#clip0)">
<path d="M27.0731 64.9757C25.0824 64.9757 23.4634 63.3585 23.4634 61.3659V12.6342C23.4634 10.6435 25.0824 9.02448 27.0731 9.02448H61.3658C63.3584 9.02448 64.9756 10.6435 64.9756 12.6342H68.5853C70.5779 12.6342 72.1951 14.2532 72.1951 16.244V25.2684C72.1951 27.2592 70.5779 28.8781 68.5853 28.8781C70.5779 28.8781 72.1951 30.4971 72.1951 32.4879V41.5123C72.1951 42.4697 71.8148 43.3878 71.1378 44.0648C70.4608 44.7417 69.5427 45.122 68.5853 45.122C69.5427 45.122 70.4608 45.5024 71.1378 46.1793C71.8148 46.8563 72.1951 47.7744 72.1951 48.7318V57.7562C72.1951 58.7136 71.8148 59.6317 71.1378 60.3087C70.4608 60.9856 69.5427 61.3659 68.5853 61.3659H64.9756C64.9756 62.3233 64.5952 63.2415 63.9183 63.9184C63.2413 64.5954 62.3232 64.9757 61.3658 64.9757H27.0731Z" fill="white"/>
<path d="M74 16.244C74 13.2587 71.5706 10.8293 68.5853 10.8293H66.4718C66.0974 9.77422 65.4056 8.86084 64.4914 8.21453C63.5772 7.56823 62.4854 7.22068 61.3658 7.21957H27.0731C24.0879 7.21957 21.6585 9.64894 21.6585 12.6342V61.3659C21.6585 64.3512 24.0879 66.7805 27.0731 66.7805H61.3658C62.4854 66.7794 63.5772 66.4319 64.4914 65.7856C65.4056 65.1393 66.0974 64.2259 66.4718 63.1708H68.5853C71.5706 63.1708 74 60.7414 74 57.7562V48.7318C74 47.3456 73.4765 46.0804 72.6174 45.122C73.5086 44.131 74.0011 42.845 74 41.5123V32.4879C74 31.1017 73.4765 29.8365 72.6174 28.8781C73.5086 27.8871 74.0011 26.6011 74 25.2684V16.244ZM70.3902 57.7562C70.3902 58.2348 70.2 58.6939 69.8616 59.0324C69.5231 59.3709 69.064 59.561 68.5853 59.561H66.7804V46.9269H68.5853C69.064 46.9269 69.5231 47.117 69.8616 47.4555C70.2 47.794 70.3902 48.2531 70.3902 48.7318V57.7562ZM70.3902 41.5123C70.3902 41.9909 70.2 42.45 69.8616 42.7885C69.5231 43.127 69.064 43.3171 68.5853 43.3171H66.7804V30.683H68.5853C69.064 30.683 69.5231 30.8731 69.8616 31.2116C70.2 31.5501 70.3902 32.0092 70.3902 32.4879V41.5123ZM70.3902 25.2684C70.3902 25.747 70.2 26.2061 69.8616 26.5446C69.5231 26.8831 69.064 27.0732 68.5853 27.0732H63.1707V61.3659C63.1707 61.8446 62.9805 62.3037 62.6421 62.6422C62.3036 62.9806 61.8445 63.1708 61.3658 63.1708H27.0731C26.5945 63.1708 26.1354 62.9806 25.7969 62.6422C25.4584 62.3037 25.2683 61.8446 25.2683 61.3659V12.6342C25.2683 12.1555 25.4584 11.6964 25.7969 11.358C26.1354 11.0195 26.5945 10.8293 27.0731 10.8293H61.3658C61.8445 10.8293 62.3036 11.0195 62.6421 11.358C62.9805 11.6964 63.1707 12.1555 63.1707 12.6342V14.4391H68.5853C69.064 14.4391 69.5231 14.6292 69.8616 14.9677C70.2 15.3062 70.3902 15.7653 70.3902 16.244V25.2684Z" fill="#80397B"/>
<path d="M37.9025 16.2439H55.9513V19.8536H37.9025V16.2439ZM37.9025 27.0731H55.9513V23.4634H37.9025V27.0731ZM37.9025 34.2926H55.9513V30.6829H37.9025V34.2926ZM37.9025 41.5122H55.9513V37.9024H37.9025V41.5122ZM37.9025 48.7317H55.9513V45.1219H37.9025V48.7317ZM37.9025 55.9512H55.9513V52.3414H37.9025V55.9512Z" fill="#80397B"/>
<path d="M37.9025 16.2439H55.9513V19.8536H37.9025V16.2439ZM37.9025 27.0731H55.9513V23.4634H37.9025V27.0731ZM37.9025 34.2926H55.9513V30.6829H37.9025V34.2926ZM37.9025 41.5122H55.9513V37.9024H37.9025V41.5122ZM37.9025 48.7317H55.9513V45.1219H37.9025V48.7317ZM37.9025 55.9512H55.9513V52.3414H37.9025V55.9512Z" fill="#80397B"/>
<path d="M43.3171 3.05176e-05L0 9.02442V64.9756L43.3171 74V3.05176e-05Z" fill="#80397B"/>
<g opacity="0.05">
<path opacity="0.05" d="M43.3171 0L0 9.02439V64.9756L43.3171 74V0Z" fill="url(#paint0_linear)"/>
</g>
<path d="M27.5243 21.6586V42.8659C27.3944 42.5916 16.2439 22.1098 16.2439 22.1098L10.8292 22.561V50.9752L16.2439 51.2766C16.2439 51.2766 16.2655 29.9682 16.2439 29.6903L26.9071 51.9733L33.3902 52.3415V20.7561L27.5243 21.6586Z" fill="white"/>
</g>
<defs>
<linearGradient id="paint0_linear" x1="0" y1="37" x2="43.3171" y2="37" gradientUnits="userSpaceOnUse">
<stop stop-color="white"/>
<stop offset="1"/>
</linearGradient>
<clipPath id="clip0">
<rect width="74" height="74" fill="white"/>
</clipPath>
</defs>
</svg>
