<svg width="76" height="76" viewBox="0 0 76 76" fill="none" xmlns="http://www.w3.org/2000/svg">
<g clip-path="url(#clip0)">
<path fill-rule="evenodd" clip-rule="evenodd" d="M27.8648 0C23.6636 0.00309888 20.2635 3.40567 20.2666 7.59845C20.2635 11.7912 23.6667 15.1938 27.8679 15.1969H35.4691V7.60155C35.4722 3.40877 32.0691 0.00619776 27.8648 0C27.8679 0 27.8679 0 27.8648 0V0ZM27.8648 20.2667H7.60101C3.39983 20.2698 -0.00334074 23.6723 -0.000235655 27.8651C-0.00644582 32.0579 3.39672 35.4605 7.5979 35.4667H27.8648C32.0659 35.4636 35.4691 32.061 35.466 27.8682C35.4691 23.6723 32.0659 20.2698 27.8648 20.2667Z" fill="#36C5F0"/>
<path fill-rule="evenodd" clip-rule="evenodd" d="M76.0001 27.8651C76.0032 23.6723 72.6 20.2698 68.3988 20.2667C64.1977 20.2698 60.7945 23.6723 60.7976 27.8651V35.4667H68.3988C72.6 35.4636 76.0032 32.061 76.0001 27.8651ZM55.7332 27.8651V7.59845C55.7363 3.40877 52.3362 0.00619776 48.1351 0C43.9339 0.00309888 40.5307 3.40567 40.5338 7.59845V27.8651C40.5276 32.0579 43.9308 35.4605 48.132 35.4667C52.3331 35.4636 55.7363 32.061 55.7332 27.8651Z" fill="#2EB67D"/>
<path fill-rule="evenodd" clip-rule="evenodd" d="M48.1319 76.0001C52.3331 75.997 55.7362 72.5944 55.7331 68.4016C55.7362 64.2088 52.3331 60.8062 48.1319 60.8031H40.5306V68.4016C40.5275 72.5913 43.9307 75.9939 48.1319 76.0001ZM48.1319 55.7303H68.3988C72.5999 55.7272 76.0031 52.3246 76 48.1318C76.0062 43.939 72.603 40.5365 68.4019 40.5303H48.135C43.9338 40.5334 40.5306 43.9359 40.5337 48.1287C40.5306 52.3246 43.9307 55.7272 48.1319 55.7303Z" fill="#ECB22E"/>
<path fill-rule="evenodd" clip-rule="evenodd" d="M2.12314e-06 48.1319C-0.00310296 52.3247 3.40007 55.7272 7.60124 55.7303C11.8024 55.7272 15.2056 52.3247 15.2025 48.1319V40.5334H7.60124C3.40007 40.5365 -0.00310296 43.9391 2.12314e-06 48.1319ZM20.2669 48.1319V68.3986C20.2607 72.5913 23.6638 75.9939 27.865 76.0001C32.0662 75.997 35.4694 72.5944 35.4663 68.4017V48.1381C35.4725 43.9453 32.0693 40.5427 27.8681 40.5365C23.6638 40.5365 20.2638 43.9391 20.2669 48.1319C20.2669 48.1319 20.2669 48.135 20.2669 48.1319Z" fill="#E01E5A"/>
</g>
<defs>
<clipPath id="clip0">
<rect width="76" height="76" fill="white"/>
</clipPath>
</defs>
</svg>
