<svg width="74" height="74" viewBox="0 0 74 74" fill="none" xmlns="http://www.w3.org/2000/svg">
<g clip-path="url(#clip0)">
<path d="M73.9959 55.2943C73.9959 55.6994 73.9835 56.5781 73.9592 57.2569C73.8996 58.9177 73.768 61.0609 73.5689 62.0374C73.2696 63.5048 72.8179 64.8898 72.2289 66.0427C71.5321 67.4064 70.6432 68.628 69.587 69.6823C68.533 70.7345 67.3126 71.6199 65.9509 72.3139C64.7921 72.9044 63.3983 73.3564 61.9225 73.6543C60.9558 73.8495 58.8287 73.9787 57.1784 74.0374C56.499 74.0616 55.6201 74.0738 55.2164 74.0738L18.7781 74.068C18.373 74.068 17.4943 74.0556 16.8156 74.0312C15.1547 73.9717 13.0116 73.84 12.035 73.641C10.5676 73.3417 9.18249 72.89 8.0297 72.301C6.6659 71.6041 5.4444 70.7152 4.39011 69.659C3.33792 68.6051 2.45252 67.3847 1.75856 66.023C1.16786 64.8641 0.715906 63.4704 0.417954 61.9947C0.222837 61.0279 0.0936979 58.9008 0.0349459 57.2505C0.0108091 56.5711 -0.00140381 55.6922 -0.00140381 55.2886L0.00437745 18.8503C0.00437745 18.4451 0.0167349 17.5664 0.0410884 16.8876C0.100708 15.2267 0.232304 13.0836 0.431396 12.1072C0.730648 10.6397 1.18231 9.25463 1.77135 8.10177C2.46821 6.73805 3.35715 5.51647 4.41331 4.46219C5.46723 3.41007 6.68766 2.5246 8.04936 1.83056C9.20829 1.24001 10.6021 0.788059 12.0778 0.490108C13.0445 0.294919 15.1717 0.16578 16.8219 0.107101C17.5014 0.0828916 18.3803 0.0706787 18.7839 0.0706787L55.2222 0.0765322C55.6275 0.0765322 56.5061 0.0888896 57.1849 0.113243C58.8457 0.172862 60.9888 0.304458 61.9654 0.50355C63.4327 0.802802 64.8178 1.25446 65.9707 1.8435C67.3344 2.54036 68.5559 3.4293 69.6102 4.48546C70.6623 5.53938 71.5478 6.75973 72.2418 8.1215C72.8325 9.28043 73.2844 10.6741 73.5824 12.1499C73.7775 13.1166 73.9066 15.2437 73.9654 16.894C73.9896 17.5735 74.0018 18.4524 74.0018 18.8561L73.9959 55.2943Z" fill="url(#paint0_linear)"/>
<path d="M56.6059 17.5783C51.5958 12.564 44.9329 9.80113 37.8339 9.79831C23.2072 9.79831 11.3028 21.6981 11.297 36.325C11.2951 41.0005 12.517 45.5644 14.8392 49.5873L11.0745 63.3343L25.1421 59.6454C29.0181 61.7587 33.3819 62.8725 37.8234 62.8744H37.8343C52.4596 62.8744 64.3651 50.9731 64.371 36.3461C64.3738 29.2578 61.6161 22.5926 56.6059 17.5783ZM37.8343 58.394H37.8253C33.8675 58.3925 29.9857 57.3296 26.5992 55.3206L25.7938 54.8428L17.4458 57.0319L19.6741 48.8954L19.1495 48.0611C16.9416 44.5506 15.7756 40.4928 15.7773 36.3267C15.7821 24.1696 25.6766 14.2788 37.8428 14.2788C43.734 14.281 49.2719 16.5776 53.4362 20.7453C57.6006 24.9129 59.8926 30.4528 59.8904 36.3444C59.8857 48.5026 49.9912 58.394 37.8343 58.394ZM49.9327 41.8802C49.2695 41.5484 46.0097 39.9448 45.4018 39.7236C44.7941 39.5023 44.3521 39.3917 43.9099 40.0554C43.468 40.719 42.1973 42.212 41.8104 42.6544C41.4236 43.0968 41.0368 43.1521 40.3738 42.8203C39.7107 42.4885 37.5742 41.7886 35.0416 39.5303C33.0705 37.7729 31.7397 35.602 31.3529 34.9384C30.9662 34.2747 31.3118 33.9161 31.6437 33.5856C31.942 33.2886 32.3068 32.8114 32.6383 32.4243C32.9698 32.0373 33.0804 31.7607 33.3014 31.3184C33.5224 30.876 33.4119 30.4888 33.2461 30.1571C33.0804 29.8253 31.7542 26.5626 31.2017 25.2355C30.6635 23.9429 30.1168 24.1178 29.7098 24.0975C29.3234 24.0783 28.8809 24.0742 28.439 24.0742C27.997 24.0742 27.2786 24.2401 26.6708 24.9037C26.0631 25.5673 24.3502 27.171 24.3502 30.4335C24.3502 33.6961 26.7261 36.8481 27.0576 37.2905C27.3892 37.7329 31.7331 44.4282 38.3846 47.2994C39.9666 47.9823 41.2017 48.3902 42.1647 48.6957C43.7531 49.2001 45.1985 49.1289 46.3411 48.9583C47.615 48.7681 50.264 47.3548 50.8167 45.8065C51.3692 44.258 51.3692 42.9309 51.2035 42.6544C51.0377 42.378 50.5957 42.212 49.9327 41.8802Z" fill="white"/>
</g>
<defs>
<linearGradient id="paint0_linear" x1="37.0002" y1="0.0706787" x2="37.0002" y2="74.0739" gradientUnits="userSpaceOnUse">
<stop stop-color="#61FD7D"/>
<stop offset="1" stop-color="#2BB826"/>
</linearGradient>
<clipPath id="clip0">
<rect width="74" height="74" fill="white"/>
</clipPath>
</defs>
</svg>
