<svg width="66" height="66" viewBox="0 0 66 66" fill="none" xmlns="http://www.w3.org/2000/svg">
<g clip-path="url(#clip0)">
<path d="M61.3089 32.9992C61.3089 44.2053 54.7969 53.8885 45.3539 58.478L58.858 21.478C60.4768 25.1031 61.312 29.0291 61.3089 32.9992ZM13.8883 31.5707C13.8883 28.072 15.1451 25.649 16.2229 23.7631C17.658 21.4312 19.0025 19.4564 19.0025 17.1245C19.0025 14.5221 17.0293 12.0997 14.2492 12.0997C14.1237 12.0997 14.0047 12.1153 13.8819 12.1223C18.919 7.50806 25.6293 4.6908 32.9994 4.6908C42.8895 4.6908 51.5907 9.76511 56.6526 17.4509C55.9884 17.4708 55.362 17.4843 54.8308 17.4843C51.8697 17.4843 47.2861 17.125 47.2861 17.125C45.7601 17.0351 45.5802 19.2765 47.1041 19.4569C47.1041 19.4569 48.6382 19.6374 50.3447 19.7268L40.0356 50.3909L33.8398 31.8104L38.251 19.7263C39.7754 19.6369 41.2196 19.4564 41.2196 19.4564C42.7451 19.367 42.5663 17.0345 41.0408 17.1245C41.0408 17.1245 36.3656 17.4838 33.5839 17.4838C30.6233 17.4838 26.0392 17.1245 26.0392 17.1245C24.5121 17.0345 24.3327 19.2759 25.8577 19.4564C25.8577 19.4564 27.3945 19.6369 29.0978 19.7263L18.8673 50.1581L16.0441 40.7222C14.8197 36.8066 13.8883 33.9941 13.8883 31.5707Z" fill="#00749A"/>
<path d="M32.5028 35.4754L40.9966 60.1564C38.3998 60.9217 35.7066 61.3103 32.9994 61.3103C29.7028 61.3103 26.5413 60.7398 23.5985 59.7055C23.6774 59.582 23.7449 59.4514 23.8 59.3155L32.5028 35.4754ZM8.15901 19.417C8.03727 20.3187 7.96832 21.2873 7.96832 22.328C7.96832 25.2008 8.50483 28.4301 10.1209 32.468L18.7682 57.4695C10.352 52.5616 4.69102 43.4435 4.69102 32.9991C4.68347 28.2518 5.87644 23.5796 8.15901 19.417Z" fill="#00749A"/>
<path d="M32.9985 -4.57764e-05C51.1944 -4.57764e-05 65.9988 14.8033 65.9988 32.9991C65.9988 51.1972 51.1949 66.0005 32.9985 66.0005C14.8032 66.0005 -0.00338745 51.1977 -0.00338745 32.9991C-0.00284576 14.8033 14.8032 -4.57764e-05 32.9985 -4.57764e-05ZM32.9985 64.4874C50.36 64.4874 64.4857 50.3617 64.4857 32.9991C64.4857 15.6382 50.3605 1.51363 32.9985 1.51363C15.6376 1.51363 1.51299 15.6382 1.51299 32.9991C1.51299 50.3617 15.6381 64.4874 32.9985 64.4874Z" fill="#00749A"/>
</g>
<defs>
<clipPath id="clip0">
<rect width="66" height="66" fill="white" transform="matrix(-1 0 0 1 66 0)"/>
</clipPath>
</defs>
</svg>
