<svg width="28" height="28" viewBox="0 0 28 28" fill="none" xmlns="http://www.w3.org/2000/svg">
<path d="M24 0H4C2.93913 0 1.92172 0.421427 1.17157 1.17157C0.421427 1.92172 0 2.93913 0 4V24C0 25.0609 0.421427 26.0783 1.17157 26.8284C1.92172 27.5786 2.93913 28 4 28H24C25.0609 28 26.0783 27.5786 26.8284 26.8284C27.5786 26.0783 28 25.0609 28 24V4C28 2.93913 27.5786 1.92172 26.8284 1.17157C26.0783 0.421427 25.0609 0 24 0ZM23.22 18.66C23.1124 19.0706 22.8986 19.4457 22.6003 19.7476C22.3019 20.0495 21.9293 20.2676 21.52 20.38C19.0247 20.6766 16.5127 20.8102 14 20.78C11.4873 20.8102 8.97531 20.6766 6.48 20.38C6.07068 20.2676 5.69813 20.0495 5.39975 19.7476C5.10136 19.4457 4.88762 19.0706 4.78 18.66C4.50408 17.1222 4.37018 15.5623 4.38 14C4.37018 12.4377 4.50408 10.8778 4.78 9.34C4.88762 8.9294 5.10136 8.55432 5.39975 8.25242C5.69813 7.95052 6.07068 7.73242 6.48 7.62C8.97531 7.32343 11.4873 7.18981 14 7.22C16.5127 7.18981 19.0247 7.32343 21.52 7.62C21.9293 7.73242 22.3019 7.95052 22.6003 8.25242C22.8986 8.55432 23.1124 8.9294 23.22 9.34C23.4959 10.8778 23.6298 12.4377 23.62 14C23.6298 15.5623 23.4959 17.1222 23.22 18.66Z" fill="#150B28"/>
<path d="M13.03 16.86L18.06 14L13.03 11.14V16.86Z" fill="#150B28"/>
</svg>
